<svg width="590" height="68" viewBox="0 0 590 68" fill="none" xmlns="http://www.w3.org/2000/svg">
<mask id="path-1-outside-1_160_5" maskUnits="userSpaceOnUse" x="34" y="3" width="520" height="58" fill="black">
<rect fill="white" x="34" y="3" width="520" height="58"/>
<path d="M79.856 4.624C79.856 8.08 78.632 10.672 76.184 12.472C73.808 14.2 71 14.92 67.76 14.632L66.896 14.56V46.24C71.936 44.656 76.04 41.488 79.208 36.664L79.568 36.88C77.192 45.304 72.656 50.344 66.104 52C64.16 52.504 62.144 52.72 60.2 52.72C52.136 52.72 46.016 49.84 41.912 44.08C39.536 40.768 38.384 37.096 38.384 33.064C38.384 31.408 38.672 29.536 39.176 27.592C40.04 24.28 41.552 21.328 43.784 18.664C45.44 16.576 47.96 14.344 51.2 11.824L46.808 11.608C44.648 11.536 42.632 11.968 40.76 12.976C39.104 13.912 37.376 15.712 35.576 18.232H35.288C36.728 9.376 42.488 4.984 52.64 4.984C55.88 4.984 58.832 5.272 61.424 5.92C62.792 6.28 64.592 6.784 66.824 7.432C69.056 8.08 70.928 8.368 72.44 8.368C75.608 8.368 77.912 7.072 79.424 4.552L79.856 4.624ZM65.312 46.528V14.488L60.632 13.552V28.24C60.632 31.48 59.984 34.288 58.616 36.592C57.608 38.32 55.664 40.48 52.784 43.144C55.952 45.52 59.84 46.744 64.376 46.744L65.312 46.528ZM53.576 36.16V12.328L52.496 12.04C47.672 17.152 45.296 22.696 45.296 28.744C45.296 33.784 47.24 38.248 51.2 42.064C52.784 40.552 53.576 38.608 53.576 36.16ZM108.172 44.512C108.172 48.76 105.94 52.216 101.476 55.024C98.2357 57.184 94.0597 58.768 89.0917 59.704L88.8757 59.272C93.5557 57.472 96.5077 56.032 97.8037 55.096C100.324 53.224 101.62 50.56 101.62 47.104V26.944C101.332 25.576 100.396 24.496 98.8837 23.56L93.1957 27.808V45.592L95.0677 47.68L89.5957 52.432L84.1957 48.04L86.2837 45.592V23.056H82.7557V19.528H86.4277V15.28C86.4277 12.04 85.5637 9.664 83.8357 8.08L83.9797 7.936C85.7077 8.584 87.2197 9.376 88.4437 10.312L89.5237 10.24C91.6117 7.864 93.9157 6.64 96.4357 6.64C94.3477 8.44 93.3397 10.6 93.3397 13.192V25.936L103.42 18.52C106.588 20.608 108.172 23.416 108.172 26.944V44.512ZM132.531 27.664C127.275 31.336 123.171 34.432 120.075 37.096V44.584L126.123 47.248L130.875 44.224L131.667 45.088C130.443 45.88 129.147 46.744 127.707 47.752L121.443 52.144C118.275 50.416 114.963 49.192 111.507 48.544C112.875 47.104 113.523 45.376 113.523 43.288V24.064C116.835 22.552 120.075 20.608 123.243 18.376L132.531 27.664ZM126.843 30.04L120.003 23.056V35.44L126.843 30.04ZM208.522 44.44L203.698 52.792C201.106 52.144 198.874 51.856 196.93 51.856C193.258 51.856 190.306 53.512 188.146 56.752L187.714 56.32C188.362 53.224 189.586 49.48 191.314 45.232C192.898 41.704 194.482 38.104 196.066 34.504C194.122 32.848 192.106 32.056 190.018 32.056C188.218 32.056 185.914 32.848 183.25 34.504V42.352C183.25 46.24 182.026 49.624 179.65 52.432C177.13 55.456 173.962 56.968 170.146 56.968H169.282C168.274 56.968 166.186 56.464 162.946 55.528C161.146 55.024 159.706 54.736 158.554 54.736C157.258 54.736 155.746 55.096 154.09 55.888L154.018 55.672C155.17 54.088 156.25 52.864 157.258 52.072C158.77 50.848 160.282 50.2 161.794 50.2H162.946C163.306 50.2 164.53 50.344 166.546 50.56C167.338 50.632 168.13 50.704 168.778 50.704L170.002 50.56C172.666 50.56 174.682 48.976 174.682 46.384C174.682 44.296 173.674 42.64 171.586 41.416C169.786 40.408 167.842 39.904 165.61 39.904H163.882C165.178 38.248 166.834 37.384 168.922 37.384C170.146 37.384 171.298 37.528 172.234 37.744C170.794 32.992 168.058 30.76 163.954 31.12L162.298 31.264C163.378 29.68 164.818 28.888 166.762 28.888C168.418 28.888 170.218 29.32 172.162 30.256C171.01 24.928 167.698 22.264 162.298 22.264C163.666 20.968 165.322 20.32 167.122 20.32C168.202 20.32 169.858 20.68 172.162 21.328V15.424L189.73 4.768C200.17 8.08 205.426 13.696 205.426 21.616C205.426 28.168 201.682 36.16 194.122 45.52C195.994 44.872 197.866 44.584 199.81 44.584C201.106 44.584 203.194 44.8 206.074 45.304L207.298 43.648L208.522 44.44ZM197.434 21.256C196.426 18.52 194.554 16.288 191.746 14.632C189.298 13.12 186.49 12.256 183.25 11.968V21.472C185.914 23.488 188.434 24.496 190.738 24.496C193.114 24.496 195.346 23.416 197.434 21.256ZM198.154 25.864C198.154 25.432 198.01 24.424 197.794 22.912C195.562 24.784 193.186 25.72 190.738 25.72C188.362 25.72 185.842 24.928 183.322 23.272V32.92C185.626 31.552 187.93 30.904 190.234 30.904C192.466 30.904 194.626 31.552 196.714 32.92C197.65 29.968 198.154 27.592 198.154 25.864ZM181.738 40.984V12.112L178.858 13.552V39.4C178.858 42.208 178.57 44.44 177.994 46.096C177.202 48.256 175.762 49.912 173.674 51.064L173.746 51.352L174.322 51.496C179.218 51.496 181.666 48.184 181.666 41.56L181.738 40.984ZM233.907 46.888C229.587 48.184 226.059 50.056 223.251 52.432C219.435 49.624 215.115 47.752 210.291 46.744C211.587 45.664 212.235 43.864 212.235 41.2V24.136C216.123 23.056 219.507 21.112 222.459 18.376C226.995 21.328 230.811 22.984 233.907 23.416V46.888ZM227.139 46.744V26.944L218.859 23.776V43.648C220.443 44.296 222.171 45.016 223.971 45.664C225.267 46.168 226.347 46.528 227.139 46.744ZM261.751 46.888C257.431 48.184 253.903 50.056 251.095 52.432C247.279 49.624 242.959 47.752 238.135 46.744C239.431 45.664 240.079 43.864 240.079 41.2V24.136C243.967 23.056 247.351 21.112 250.303 18.376C254.839 21.328 258.655 22.984 261.751 23.416V46.888ZM254.983 46.744V26.944L246.703 23.776V43.648C248.287 44.296 250.015 45.016 251.815 45.664C253.111 46.168 254.191 46.528 254.983 46.744ZM295.426 47.104L288.946 52.432C285.49 50.2 284.554 48.112 284.554 43.792V26.584L281.314 23.776L276.202 27.52V45.376L278.146 47.824L272.962 52.432L267.49 47.824L269.506 45.592V27.088C269.506 25.864 268.93 24.712 267.778 23.776L266.626 24.568L265.906 23.776L271.81 18.376C274.834 20.176 276.346 22.696 276.346 25.936C280.378 22.984 283.474 20.464 285.562 18.52L290.53 23.128L293.626 20.68L294.346 21.472C293.266 22.84 292.186 24.352 291.178 26.008V44.944C291.538 45.808 292.258 46.6 293.194 47.248L294.706 46.384L295.426 47.104ZM324.108 47.032L317.916 52.216C314.82 50.56 313.308 47.968 313.308 44.44L303.516 52.288H303.156C299.772 49.12 298.044 46.024 298.044 43.072C298.044 38.608 300.42 34.288 305.172 30.04L301.716 21.04L302.652 21.112C305.316 21.328 307.836 20.392 310.068 18.304L320.292 21.688L322.308 20.104L322.452 20.392C321.3 22.192 320.508 23.992 320.004 25.936V44.8C320.364 46.024 321.084 46.744 322.02 47.032L323.316 46.384L324.108 47.032ZM313.308 33.496V25.576L302.868 21.688L305.892 29.896L313.308 33.496ZM313.38 42.568V34.792L305.892 31.048C304.524 33.496 303.804 35.872 303.804 38.104C303.804 41.344 305.172 44.368 307.98 47.176L313.38 42.568ZM337.607 9.736C335.807 14.272 332.711 18.016 328.175 20.968L326.879 19.528C329.039 17.656 330.119 16.072 330.119 14.848C330.119 13.696 329.039 11.968 326.879 9.736L332.351 4.552C332.783 4.984 333.431 5.632 334.295 6.568C334.943 7.216 336.095 8.296 337.607 9.736ZM365.737 16.504C365.737 17.584 365.017 19.096 363.649 20.968L357.097 29.824L363.865 34V47.248C362.281 47.752 360.697 48.472 359.185 49.408C358.393 49.912 356.953 50.776 354.937 52.144C352.489 50.92 350.041 50.272 347.665 50.272C345.289 50.272 342.913 50.848 340.393 51.928L339.457 51.28L348.025 39.04L341.113 35.224V24.136C344.353 22.696 347.305 20.68 349.969 18.16C353.929 20.104 356.953 21.112 359.185 21.112L361.057 20.896C362.425 20.896 363.793 19.744 363.793 18.376C363.793 17.872 363.289 17.008 362.209 15.64L361.849 14.992C361.849 14.2 362.425 13.84 363.577 13.84C365.017 13.84 365.737 14.704 365.737 16.504ZM358.753 25.072C357.601 25.288 356.233 25.36 354.721 25.36C352.561 25.36 350.185 24.856 347.521 23.776L347.449 32.056L351.769 34.288L358.753 25.072ZM357.889 37.096L353.353 34.792L345.361 45.16C346.657 44.872 348.241 44.728 350.041 44.728C352.561 44.728 355.153 45.376 357.816 46.672L357.889 37.096ZM436.411 4.624C436.411 8.08 435.187 10.672 432.739 12.472C430.363 14.2 427.555 14.92 424.315 14.632L423.451 14.56V46.24C428.491 44.656 432.595 41.488 435.763 36.664L436.123 36.88C433.747 45.304 429.211 50.344 422.659 52C420.715 52.504 418.699 52.72 416.755 52.72C408.691 52.72 402.571 49.84 398.467 44.08C396.091 40.768 394.939 37.096 394.939 33.064C394.939 31.408 395.227 29.536 395.731 27.592C396.595 24.28 398.107 21.328 400.339 18.664C401.995 16.576 404.515 14.344 407.755 11.824L403.363 11.608C401.203 11.536 399.187 11.968 397.315 12.976C395.659 13.912 393.931 15.712 392.131 18.232H391.843C393.283 9.376 399.043 4.984 409.195 4.984C412.435 4.984 415.387 5.272 417.979 5.92C419.347 6.28 421.147 6.784 423.379 7.432C425.611 8.08 427.483 8.368 428.995 8.368C432.163 8.368 434.467 7.072 435.979 4.552L436.411 4.624ZM421.867 46.528V14.488L417.187 13.552V28.24C417.187 31.48 416.539 34.288 415.171 36.592C414.163 38.32 412.219 40.48 409.339 43.144C412.507 45.52 416.395 46.744 420.931 46.744L421.867 46.528ZM410.131 36.16V12.328L409.051 12.04C404.227 17.152 401.851 22.696 401.851 28.744C401.851 33.784 403.795 38.248 407.755 42.064C409.339 40.552 410.131 38.608 410.131 36.16ZM449.966 7.792L443.846 15.136H442.91L444.638 7.792H449.966ZM451.838 47.032L445.286 52.36C442.046 50.632 440.534 48.184 440.75 45.088L440.822 43.792V25L438.734 22.768L444.062 18.376L449.606 22.984L447.806 25V44.944C448.022 45.88 448.67 46.672 449.822 47.248L451.118 46.384L451.838 47.032ZM499.637 47.104L493.157 52.432C491.357 51.424 490.133 50.272 489.485 48.904C488.909 47.68 488.621 46.024 488.621 43.792V26.584L485.525 23.776L480.413 27.52V45.376L482.285 47.824L477.173 52.432L471.629 47.824L473.789 45.592V27.088C473.789 26.008 472.853 24.856 470.909 23.56L465.221 27.808V45.376L467.165 47.824L461.909 52.432L456.581 47.824L458.525 45.592V27.088C458.525 25.864 457.949 24.712 456.725 23.776L455.573 24.568L454.925 23.776L460.685 18.376C463.781 20.032 465.365 22.552 465.365 26.008L475.805 18.376C478.181 20.536 479.693 23.056 480.413 25.936C482.573 24.352 485.669 21.904 489.773 18.52L494.669 23.128L497.621 20.68L498.413 21.472C497.837 22.264 497.333 22.984 496.829 23.632C496.181 24.568 495.605 25.36 495.245 26.008V44.944C495.677 45.88 496.397 46.6 497.405 47.248L498.773 46.384L499.637 47.104ZM523.75 27.664C518.494 31.336 514.39 34.432 511.294 37.096V44.584L517.342 47.248L522.094 44.224L522.886 45.088C521.662 45.88 520.366 46.744 518.926 47.752L512.662 52.144C509.494 50.416 506.182 49.192 502.726 48.544C504.094 47.104 504.742 45.376 504.742 43.288V24.064C508.054 22.552 511.294 20.608 514.462 18.376L523.75 27.664ZM518.062 30.04L511.222 23.056V35.44L518.062 30.04ZM552.346 16.504C552.346 17.584 551.626 19.096 550.258 20.968L543.706 29.824L550.474 34V47.248C548.89 47.752 547.306 48.472 545.794 49.408C545.002 49.912 543.562 50.776 541.546 52.144C539.098 50.92 536.65 50.272 534.274 50.272C531.898 50.272 529.522 50.848 527.002 51.928L526.066 51.28L534.634 39.04L527.722 35.224V24.136C530.962 22.696 533.914 20.68 536.578 18.16C540.538 20.104 543.562 21.112 545.794 21.112L547.666 20.896C549.034 20.896 550.402 19.744 550.402 18.376C550.402 17.872 549.898 17.008 548.818 15.64L548.458 14.992C548.458 14.2 549.034 13.84 550.186 13.84C551.626 13.84 552.346 14.704 552.346 16.504ZM545.362 25.072C544.21 25.288 542.842 25.36 541.33 25.36C539.17 25.36 536.794 24.856 534.13 23.776L534.058 32.056L538.378 34.288L545.362 25.072ZM544.498 37.096L539.962 34.792L531.97 45.16C533.266 44.872 534.85 44.728 536.65 44.728C539.17 44.728 541.762 45.376 544.426 46.672L544.498 37.096Z"/>
</mask>
<path d="M79.856 4.624C79.856 8.08 78.632 10.672 76.184 12.472C73.808 14.2 71 14.92 67.76 14.632L66.896 14.56V46.24C71.936 44.656 76.04 41.488 79.208 36.664L79.568 36.88C77.192 45.304 72.656 50.344 66.104 52C64.16 52.504 62.144 52.72 60.2 52.72C52.136 52.72 46.016 49.84 41.912 44.08C39.536 40.768 38.384 37.096 38.384 33.064C38.384 31.408 38.672 29.536 39.176 27.592C40.04 24.28 41.552 21.328 43.784 18.664C45.44 16.576 47.96 14.344 51.2 11.824L46.808 11.608C44.648 11.536 42.632 11.968 40.76 12.976C39.104 13.912 37.376 15.712 35.576 18.232H35.288C36.728 9.376 42.488 4.984 52.64 4.984C55.88 4.984 58.832 5.272 61.424 5.92C62.792 6.28 64.592 6.784 66.824 7.432C69.056 8.08 70.928 8.368 72.44 8.368C75.608 8.368 77.912 7.072 79.424 4.552L79.856 4.624ZM65.312 46.528V14.488L60.632 13.552V28.24C60.632 31.48 59.984 34.288 58.616 36.592C57.608 38.32 55.664 40.48 52.784 43.144C55.952 45.52 59.84 46.744 64.376 46.744L65.312 46.528ZM53.576 36.16V12.328L52.496 12.04C47.672 17.152 45.296 22.696 45.296 28.744C45.296 33.784 47.24 38.248 51.2 42.064C52.784 40.552 53.576 38.608 53.576 36.16ZM108.172 44.512C108.172 48.76 105.94 52.216 101.476 55.024C98.2357 57.184 94.0597 58.768 89.0917 59.704L88.8757 59.272C93.5557 57.472 96.5077 56.032 97.8037 55.096C100.324 53.224 101.62 50.56 101.62 47.104V26.944C101.332 25.576 100.396 24.496 98.8837 23.56L93.1957 27.808V45.592L95.0677 47.68L89.5957 52.432L84.1957 48.04L86.2837 45.592V23.056H82.7557V19.528H86.4277V15.28C86.4277 12.04 85.5637 9.664 83.8357 8.08L83.9797 7.936C85.7077 8.584 87.2197 9.376 88.4437 10.312L89.5237 10.24C91.6117 7.864 93.9157 6.64 96.4357 6.64C94.3477 8.44 93.3397 10.6 93.3397 13.192V25.936L103.42 18.52C106.588 20.608 108.172 23.416 108.172 26.944V44.512ZM132.531 27.664C127.275 31.336 123.171 34.432 120.075 37.096V44.584L126.123 47.248L130.875 44.224L131.667 45.088C130.443 45.88 129.147 46.744 127.707 47.752L121.443 52.144C118.275 50.416 114.963 49.192 111.507 48.544C112.875 47.104 113.523 45.376 113.523 43.288V24.064C116.835 22.552 120.075 20.608 123.243 18.376L132.531 27.664ZM126.843 30.04L120.003 23.056V35.44L126.843 30.04ZM208.522 44.44L203.698 52.792C201.106 52.144 198.874 51.856 196.93 51.856C193.258 51.856 190.306 53.512 188.146 56.752L187.714 56.32C188.362 53.224 189.586 49.48 191.314 45.232C192.898 41.704 194.482 38.104 196.066 34.504C194.122 32.848 192.106 32.056 190.018 32.056C188.218 32.056 185.914 32.848 183.25 34.504V42.352C183.25 46.24 182.026 49.624 179.65 52.432C177.13 55.456 173.962 56.968 170.146 56.968H169.282C168.274 56.968 166.186 56.464 162.946 55.528C161.146 55.024 159.706 54.736 158.554 54.736C157.258 54.736 155.746 55.096 154.09 55.888L154.018 55.672C155.17 54.088 156.25 52.864 157.258 52.072C158.77 50.848 160.282 50.2 161.794 50.2H162.946C163.306 50.2 164.53 50.344 166.546 50.56C167.338 50.632 168.13 50.704 168.778 50.704L170.002 50.56C172.666 50.56 174.682 48.976 174.682 46.384C174.682 44.296 173.674 42.64 171.586 41.416C169.786 40.408 167.842 39.904 165.61 39.904H163.882C165.178 38.248 166.834 37.384 168.922 37.384C170.146 37.384 171.298 37.528 172.234 37.744C170.794 32.992 168.058 30.76 163.954 31.12L162.298 31.264C163.378 29.68 164.818 28.888 166.762 28.888C168.418 28.888 170.218 29.32 172.162 30.256C171.01 24.928 167.698 22.264 162.298 22.264C163.666 20.968 165.322 20.32 167.122 20.32C168.202 20.32 169.858 20.68 172.162 21.328V15.424L189.73 4.768C200.17 8.08 205.426 13.696 205.426 21.616C205.426 28.168 201.682 36.16 194.122 45.52C195.994 44.872 197.866 44.584 199.81 44.584C201.106 44.584 203.194 44.8 206.074 45.304L207.298 43.648L208.522 44.44ZM197.434 21.256C196.426 18.52 194.554 16.288 191.746 14.632C189.298 13.12 186.49 12.256 183.25 11.968V21.472C185.914 23.488 188.434 24.496 190.738 24.496C193.114 24.496 195.346 23.416 197.434 21.256ZM198.154 25.864C198.154 25.432 198.01 24.424 197.794 22.912C195.562 24.784 193.186 25.72 190.738 25.72C188.362 25.72 185.842 24.928 183.322 23.272V32.92C185.626 31.552 187.93 30.904 190.234 30.904C192.466 30.904 194.626 31.552 196.714 32.92C197.65 29.968 198.154 27.592 198.154 25.864ZM181.738 40.984V12.112L178.858 13.552V39.4C178.858 42.208 178.57 44.44 177.994 46.096C177.202 48.256 175.762 49.912 173.674 51.064L173.746 51.352L174.322 51.496C179.218 51.496 181.666 48.184 181.666 41.56L181.738 40.984ZM233.907 46.888C229.587 48.184 226.059 50.056 223.251 52.432C219.435 49.624 215.115 47.752 210.291 46.744C211.587 45.664 212.235 43.864 212.235 41.2V24.136C216.123 23.056 219.507 21.112 222.459 18.376C226.995 21.328 230.811 22.984 233.907 23.416V46.888ZM227.139 46.744V26.944L218.859 23.776V43.648C220.443 44.296 222.171 45.016 223.971 45.664C225.267 46.168 226.347 46.528 227.139 46.744ZM261.751 46.888C257.431 48.184 253.903 50.056 251.095 52.432C247.279 49.624 242.959 47.752 238.135 46.744C239.431 45.664 240.079 43.864 240.079 41.2V24.136C243.967 23.056 247.351 21.112 250.303 18.376C254.839 21.328 258.655 22.984 261.751 23.416V46.888ZM254.983 46.744V26.944L246.703 23.776V43.648C248.287 44.296 250.015 45.016 251.815 45.664C253.111 46.168 254.191 46.528 254.983 46.744ZM295.426 47.104L288.946 52.432C285.49 50.2 284.554 48.112 284.554 43.792V26.584L281.314 23.776L276.202 27.52V45.376L278.146 47.824L272.962 52.432L267.49 47.824L269.506 45.592V27.088C269.506 25.864 268.93 24.712 267.778 23.776L266.626 24.568L265.906 23.776L271.81 18.376C274.834 20.176 276.346 22.696 276.346 25.936C280.378 22.984 283.474 20.464 285.562 18.52L290.53 23.128L293.626 20.68L294.346 21.472C293.266 22.84 292.186 24.352 291.178 26.008V44.944C291.538 45.808 292.258 46.6 293.194 47.248L294.706 46.384L295.426 47.104ZM324.108 47.032L317.916 52.216C314.82 50.56 313.308 47.968 313.308 44.44L303.516 52.288H303.156C299.772 49.12 298.044 46.024 298.044 43.072C298.044 38.608 300.42 34.288 305.172 30.04L301.716 21.04L302.652 21.112C305.316 21.328 307.836 20.392 310.068 18.304L320.292 21.688L322.308 20.104L322.452 20.392C321.3 22.192 320.508 23.992 320.004 25.936V44.8C320.364 46.024 321.084 46.744 322.02 47.032L323.316 46.384L324.108 47.032ZM313.308 33.496V25.576L302.868 21.688L305.892 29.896L313.308 33.496ZM313.38 42.568V34.792L305.892 31.048C304.524 33.496 303.804 35.872 303.804 38.104C303.804 41.344 305.172 44.368 307.98 47.176L313.38 42.568ZM337.607 9.736C335.807 14.272 332.711 18.016 328.175 20.968L326.879 19.528C329.039 17.656 330.119 16.072 330.119 14.848C330.119 13.696 329.039 11.968 326.879 9.736L332.351 4.552C332.783 4.984 333.431 5.632 334.295 6.568C334.943 7.216 336.095 8.296 337.607 9.736ZM365.737 16.504C365.737 17.584 365.017 19.096 363.649 20.968L357.097 29.824L363.865 34V47.248C362.281 47.752 360.697 48.472 359.185 49.408C358.393 49.912 356.953 50.776 354.937 52.144C352.489 50.92 350.041 50.272 347.665 50.272C345.289 50.272 342.913 50.848 340.393 51.928L339.457 51.28L348.025 39.04L341.113 35.224V24.136C344.353 22.696 347.305 20.68 349.969 18.16C353.929 20.104 356.953 21.112 359.185 21.112L361.057 20.896C362.425 20.896 363.793 19.744 363.793 18.376C363.793 17.872 363.289 17.008 362.209 15.64L361.849 14.992C361.849 14.2 362.425 13.84 363.577 13.84C365.017 13.84 365.737 14.704 365.737 16.504ZM358.753 25.072C357.601 25.288 356.233 25.36 354.721 25.36C352.561 25.36 350.185 24.856 347.521 23.776L347.449 32.056L351.769 34.288L358.753 25.072ZM357.889 37.096L353.353 34.792L345.361 45.16C346.657 44.872 348.241 44.728 350.041 44.728C352.561 44.728 355.153 45.376 357.816 46.672L357.889 37.096ZM436.411 4.624C436.411 8.08 435.187 10.672 432.739 12.472C430.363 14.2 427.555 14.92 424.315 14.632L423.451 14.56V46.24C428.491 44.656 432.595 41.488 435.763 36.664L436.123 36.88C433.747 45.304 429.211 50.344 422.659 52C420.715 52.504 418.699 52.72 416.755 52.72C408.691 52.72 402.571 49.84 398.467 44.08C396.091 40.768 394.939 37.096 394.939 33.064C394.939 31.408 395.227 29.536 395.731 27.592C396.595 24.28 398.107 21.328 400.339 18.664C401.995 16.576 404.515 14.344 407.755 11.824L403.363 11.608C401.203 11.536 399.187 11.968 397.315 12.976C395.659 13.912 393.931 15.712 392.131 18.232H391.843C393.283 9.376 399.043 4.984 409.195 4.984C412.435 4.984 415.387 5.272 417.979 5.92C419.347 6.28 421.147 6.784 423.379 7.432C425.611 8.08 427.483 8.368 428.995 8.368C432.163 8.368 434.467 7.072 435.979 4.552L436.411 4.624ZM421.867 46.528V14.488L417.187 13.552V28.24C417.187 31.48 416.539 34.288 415.171 36.592C414.163 38.32 412.219 40.48 409.339 43.144C412.507 45.52 416.395 46.744 420.931 46.744L421.867 46.528ZM410.131 36.16V12.328L409.051 12.04C404.227 17.152 401.851 22.696 401.851 28.744C401.851 33.784 403.795 38.248 407.755 42.064C409.339 40.552 410.131 38.608 410.131 36.16ZM449.966 7.792L443.846 15.136H442.91L444.638 7.792H449.966ZM451.838 47.032L445.286 52.36C442.046 50.632 440.534 48.184 440.75 45.088L440.822 43.792V25L438.734 22.768L444.062 18.376L449.606 22.984L447.806 25V44.944C448.022 45.88 448.67 46.672 449.822 47.248L451.118 46.384L451.838 47.032ZM499.637 47.104L493.157 52.432C491.357 51.424 490.133 50.272 489.485 48.904C488.909 47.68 488.621 46.024 488.621 43.792V26.584L485.525 23.776L480.413 27.52V45.376L482.285 47.824L477.173 52.432L471.629 47.824L473.789 45.592V27.088C473.789 26.008 472.853 24.856 470.909 23.56L465.221 27.808V45.376L467.165 47.824L461.909 52.432L456.581 47.824L458.525 45.592V27.088C458.525 25.864 457.949 24.712 456.725 23.776L455.573 24.568L454.925 23.776L460.685 18.376C463.781 20.032 465.365 22.552 465.365 26.008L475.805 18.376C478.181 20.536 479.693 23.056 480.413 25.936C482.573 24.352 485.669 21.904 489.773 18.52L494.669 23.128L497.621 20.68L498.413 21.472C497.837 22.264 497.333 22.984 496.829 23.632C496.181 24.568 495.605 25.36 495.245 26.008V44.944C495.677 45.88 496.397 46.6 497.405 47.248L498.773 46.384L499.637 47.104ZM523.75 27.664C518.494 31.336 514.39 34.432 511.294 37.096V44.584L517.342 47.248L522.094 44.224L522.886 45.088C521.662 45.88 520.366 46.744 518.926 47.752L512.662 52.144C509.494 50.416 506.182 49.192 502.726 48.544C504.094 47.104 504.742 45.376 504.742 43.288V24.064C508.054 22.552 511.294 20.608 514.462 18.376L523.75 27.664ZM518.062 30.04L511.222 23.056V35.44L518.062 30.04ZM552.346 16.504C552.346 17.584 551.626 19.096 550.258 20.968L543.706 29.824L550.474 34V47.248C548.89 47.752 547.306 48.472 545.794 49.408C545.002 49.912 543.562 50.776 541.546 52.144C539.098 50.92 536.65 50.272 534.274 50.272C531.898 50.272 529.522 50.848 527.002 51.928L526.066 51.28L534.634 39.04L527.722 35.224V24.136C530.962 22.696 533.914 20.68 536.578 18.16C540.538 20.104 543.562 21.112 545.794 21.112L547.666 20.896C549.034 20.896 550.402 19.744 550.402 18.376C550.402 17.872 549.898 17.008 548.818 15.64L548.458 14.992C548.458 14.2 549.034 13.84 550.186 13.84C551.626 13.84 552.346 14.704 552.346 16.504ZM545.362 25.072C544.21 25.288 542.842 25.36 541.33 25.36C539.17 25.36 536.794 24.856 534.13 23.776L534.058 32.056L538.378 34.288L545.362 25.072ZM544.498 37.096L539.962 34.792L531.97 45.16C533.266 44.872 534.85 44.728 536.65 44.728C539.17 44.728 541.762 45.376 544.426 46.672L544.498 37.096Z" fill="black"/>
<path d="M79.856 4.624H80.856V3.77687L80.0204 3.6376L79.856 4.624ZM76.184 12.472L76.7722 13.2807L76.7764 13.2776L76.184 12.472ZM67.76 14.632L67.8485 13.6359L67.843 13.6355L67.76 14.632ZM66.896 14.56L66.979 13.5635L65.896 13.4732V14.56H66.896ZM66.896 46.24H65.896V47.6025L67.1958 47.194L66.896 46.24ZM79.208 36.664L79.7225 35.8065L78.8992 35.3125L78.3721 36.1151L79.208 36.664ZM79.568 36.88L80.5305 37.1515L80.738 36.4158L80.0825 36.0225L79.568 36.88ZM66.104 52L65.859 51.0305L65.853 51.032L66.104 52ZM41.912 44.08L42.7264 43.4997L42.7245 43.4971L41.912 44.08ZM39.176 27.592L38.2084 27.3396L38.208 27.341L39.176 27.592ZM43.784 18.664L44.5505 19.3062L44.5591 19.2959L44.5675 19.2854L43.784 18.664ZM51.2 11.824L51.8139 12.6133L53.9427 10.9577L51.2491 10.8252L51.2 11.824ZM46.808 11.608L46.8571 10.6092L46.8492 10.6088L46.8413 10.6086L46.808 11.608ZM40.76 12.976L40.2859 12.0955L40.2769 12.1004L40.2679 12.1054L40.76 12.976ZM35.576 18.232V19.232H36.0906L36.3897 18.8132L35.576 18.232ZM35.288 18.232L34.301 18.0715L34.1123 19.232H35.288V18.232ZM61.424 5.92L61.6785 4.95285L61.6665 4.94985L61.424 5.92ZM66.824 7.432L67.1028 6.47165L67.1028 6.47165L66.824 7.432ZM79.424 4.552L79.5884 3.5656L78.9168 3.45367L78.5665 4.0375L79.424 4.552ZM65.312 46.528L65.5369 47.5024L66.312 47.3235V46.528H65.312ZM65.312 14.488H66.312V13.6682L65.5081 13.5074L65.312 14.488ZM60.632 13.552L60.8281 12.5714L59.632 12.3322V13.552H60.632ZM58.616 36.592L57.7561 36.0814L57.7522 36.0881L58.616 36.592ZM52.784 43.144L52.105 42.4099L51.2245 43.2244L52.184 43.944L52.784 43.144ZM64.376 46.744V47.744H64.4899L64.6009 47.7184L64.376 46.744ZM53.576 12.328H54.576V11.5597L53.8337 11.3618L53.576 12.328ZM52.496 12.04L52.7537 11.0738L52.1778 10.9202L51.7687 11.3537L52.496 12.04ZM51.2 42.064L50.5061 42.7841L51.1967 43.4496L51.8905 42.7874L51.2 42.064ZM78.856 4.624C78.856 7.80785 77.7484 10.0804 75.5916 11.6663L76.7764 13.2776C79.5156 11.2636 80.856 8.35214 80.856 4.624H78.856ZM75.5958 11.6633C73.4367 13.2335 70.8755 13.905 67.8485 13.6359L67.6715 15.6281C71.1245 15.935 74.1793 15.1665 76.7722 13.2807L75.5958 11.6633ZM67.843 13.6355L66.979 13.5635L66.813 15.5565L67.677 15.6285L67.843 13.6355ZM65.896 14.56V46.24H67.896V14.56H65.896ZM67.1958 47.194C72.4731 45.5354 76.7596 42.214 80.0439 37.2129L78.3721 36.1151C75.3205 40.762 71.3989 43.7766 66.5962 45.286L67.1958 47.194ZM78.6935 37.5215L79.0535 37.7375L80.0825 36.0225L79.7225 35.8065L78.6935 37.5215ZM78.6056 36.6085C76.2955 44.7986 71.9658 49.487 65.859 51.0305L66.349 52.9695C73.3462 51.201 78.0885 45.8094 80.5305 37.1515L78.6056 36.6085ZM65.853 51.032C64.0025 51.5118 62.0721 51.72 60.2 51.72V53.72C62.2159 53.72 64.3175 53.4962 66.355 52.968L65.853 51.032ZM60.2 51.72C52.4053 51.72 46.6134 48.9552 42.7264 43.4997L41.0976 44.6603C45.4186 50.7248 51.8667 53.72 60.2 53.72V51.72ZM42.7245 43.4971C40.4726 40.3581 39.384 36.8907 39.384 33.064H37.384C37.384 37.3013 38.5994 41.1779 41.0995 44.6629L42.7245 43.4971ZM39.384 33.064C39.384 31.5165 39.6543 29.7318 40.144 27.843L38.208 27.341C37.6897 29.3402 37.384 31.2995 37.384 33.064H39.384ZM40.1436 27.8444C40.9705 24.6749 42.4141 21.8561 44.5505 19.3062L43.0175 18.0218C40.6899 20.7998 39.1095 23.8851 38.2084 27.3396L40.1436 27.8444ZM44.5675 19.2854C46.1457 17.2955 48.5865 15.1235 51.8139 12.6133L50.5861 11.0346C47.3335 13.5645 44.7343 15.8565 43.0005 18.0426L44.5675 19.2854ZM51.2491 10.8252L46.8571 10.6092L46.7589 12.6068L51.1509 12.8228L51.2491 10.8252ZM46.8413 10.6086C44.5197 10.5312 42.3263 10.9968 40.2859 12.0955L41.2341 13.8565C42.9377 12.9391 44.7763 12.5408 46.7747 12.6074L46.8413 10.6086ZM40.2679 12.1054C38.4205 13.1496 36.5898 15.0922 34.7623 17.6508L36.3897 18.8132C38.1622 16.3318 39.7875 14.6744 41.2521 13.8466L40.2679 12.1054ZM35.576 17.232H35.288V19.232H35.576V17.232ZM36.275 18.3925C36.9642 14.1542 38.6633 11.0972 41.3037 9.08192C43.9607 7.05396 47.6975 5.984 52.64 5.984V3.984C47.4305 3.984 43.2113 5.11003 40.0903 7.49208C36.9527 9.88678 35.0518 13.4538 34.301 18.0715L36.275 18.3925ZM52.64 5.984C55.8251 5.984 58.6912 6.26756 61.1815 6.89014L61.6665 4.94985C58.9728 4.27643 55.9349 3.984 52.64 3.984V5.984ZM61.1695 6.88707C62.5259 7.24402 64.3169 7.74541 66.5452 8.39234L67.1028 6.47165C64.8671 5.82259 63.0581 5.31598 61.6785 4.95292L61.1695 6.88707ZM66.5452 8.39234C68.839 9.05829 70.8078 9.368 72.44 9.368V7.368C71.0482 7.368 69.273 7.10171 67.1028 6.47165L66.5452 8.39234ZM72.44 9.368C75.9406 9.368 78.5794 7.90336 80.2815 5.06649L78.5665 4.0375C77.2446 6.24064 75.2754 7.368 72.44 7.368V9.368ZM79.2596 5.53839L79.6916 5.61039L80.0204 3.6376L79.5884 3.5656L79.2596 5.53839ZM66.312 46.528V14.488H64.312V46.528H66.312ZM65.5081 13.5074L60.8281 12.5714L60.4359 14.5326L65.1159 15.4686L65.5081 13.5074ZM59.632 13.552V28.24H61.632V13.552H59.632ZM59.632 28.24C59.632 31.3496 59.0102 33.9694 57.7561 36.0815L59.4759 37.1025C60.9578 34.6066 61.632 31.6104 61.632 28.24H59.632ZM57.7522 36.0881C56.8234 37.6803 54.9734 39.7566 52.105 42.4099L53.463 43.8781C56.3546 41.2034 58.3926 38.9597 59.4798 37.0959L57.7522 36.0881ZM52.184 43.944C55.5465 46.4659 59.6521 47.744 64.376 47.744V45.744C60.0279 45.744 56.3575 44.5741 53.384 42.344L52.184 43.944ZM64.6009 47.7184L65.5369 47.5024L65.0871 45.5536L64.1511 45.7696L64.6009 47.7184ZM54.576 36.16V12.328H52.576V36.16H54.576ZM53.8337 11.3618L52.7537 11.0738L52.2383 13.0062L53.3183 13.2942L53.8337 11.3618ZM51.7687 11.3537C46.7984 16.6208 44.296 22.4017 44.296 28.744H46.296C46.296 22.9903 48.5456 17.6832 53.2233 12.7263L51.7687 11.3537ZM44.296 28.744C44.296 34.0751 46.365 38.7935 50.5061 42.7841L51.8939 41.3439C48.115 37.7025 46.296 33.4929 46.296 28.744H44.296ZM51.8905 42.7874C53.6933 41.0665 54.576 38.8506 54.576 36.16H52.576C52.576 38.3654 51.8747 40.0375 50.5095 41.3406L51.8905 42.7874ZM101.476 55.024L100.943 54.1775L100.932 54.1846L100.921 54.1919L101.476 55.024ZM89.0917 59.704L88.1973 60.1512L88.5349 60.8265L89.2768 60.6867L89.0917 59.704ZM88.8757 59.272L88.5167 58.3387L87.4887 58.7341L87.9813 59.7192L88.8757 59.272ZM97.8037 55.096L98.3892 55.9068L98.4 55.8987L97.8037 55.096ZM101.62 26.944H102.62V26.8399L102.598 26.738L101.62 26.944ZM98.8837 23.56L99.41 22.7097L98.831 22.3513L98.2853 22.7588L98.8837 23.56ZM93.1957 27.808L92.5973 27.0068L92.1957 27.3067V27.808H93.1957ZM93.1957 45.592H92.1957V45.9746L92.4511 46.2595L93.1957 45.592ZM95.0677 47.68L95.7234 48.435L96.4904 47.7689L95.8123 47.0125L95.0677 47.68ZM89.5957 52.432L88.9647 53.2078L89.6168 53.7381L90.2514 53.187L89.5957 52.432ZM84.1957 48.04L83.4349 47.3911L82.7706 48.1699L83.5647 48.8158L84.1957 48.04ZM86.2837 45.592L87.0445 46.2409L87.2837 45.9605V45.592H86.2837ZM86.2837 23.056H87.2837V22.056H86.2837V23.056ZM82.7557 23.056H81.7557V24.056H82.7557V23.056ZM82.7557 19.528V18.528H81.7557V19.528H82.7557ZM86.4277 19.528V20.528H87.4277V19.528H86.4277ZM83.8357 8.08L83.1286 7.3729L82.3901 8.11142L83.16 8.81715L83.8357 8.08ZM83.9797 7.936L84.3308 6.99967L83.7279 6.77357L83.2726 7.2289L83.9797 7.936ZM88.4437 10.312L87.8362 11.1064L88.135 11.3348L88.5102 11.3098L88.4437 10.312ZM89.5237 10.24L89.5902 11.2378L90.0023 11.2103L90.2749 10.9001L89.5237 10.24ZM96.4357 6.64L97.0886 7.39741L99.1272 5.64H96.4357V6.64ZM93.3397 25.936H92.3397V27.9132L93.9323 26.7415L93.3397 25.936ZM103.42 18.52L103.97 17.685L103.388 17.3016L102.827 17.7145L103.42 18.52ZM107.172 44.512C107.172 48.3244 105.204 51.4976 100.943 54.1775L102.008 55.8705C106.676 52.9344 109.172 49.1956 109.172 44.512H107.172ZM100.921 54.1919C97.8198 56.2594 93.7787 57.8033 88.9065 58.7213L89.2768 60.6867C94.3407 59.7327 98.6515 58.1086 102.03 55.8561L100.921 54.1919ZM89.9861 59.2568L89.7701 58.8248L87.9813 59.7192L88.1973 60.1512L89.9861 59.2568ZM89.2347 60.2053C93.912 58.4064 96.9762 56.9272 98.3892 55.9067L97.2182 54.2853C96.0392 55.1368 93.1994 56.5376 88.5167 58.3387L89.2347 60.2053ZM98.4 55.8987C101.196 53.8218 102.62 50.848 102.62 47.104H100.62C100.62 50.272 99.4515 52.6262 97.2074 54.2933L98.4 55.8987ZM102.62 47.104V26.944H100.62V47.104H102.62ZM102.598 26.738C102.233 25.0038 101.052 23.7262 99.41 22.7097L98.3573 24.4103C99.7393 25.2658 100.43 26.1482 100.641 27.15L102.598 26.738ZM98.2853 22.7588L92.5973 27.0068L93.7941 28.6092L99.4821 24.3612L98.2853 22.7588ZM92.1957 27.808V45.592H94.1957V27.808H92.1957ZM92.4511 46.2595L94.3231 48.3475L95.8123 47.0125L93.9403 44.9245L92.4511 46.2595ZM94.412 46.925L88.94 51.677L90.2514 53.187L95.7234 48.435L94.412 46.925ZM90.2267 51.6562L84.8267 47.2642L83.5647 48.8158L88.9647 53.2078L90.2267 51.6562ZM84.9565 48.6889L87.0445 46.2409L85.5229 44.9431L83.4349 47.3911L84.9565 48.6889ZM87.2837 45.592V23.056H85.2837V45.592H87.2837ZM86.2837 22.056H82.7557V24.056H86.2837V22.056ZM83.7557 23.056V19.528H81.7557V23.056H83.7557ZM82.7557 20.528H86.4277V18.528H82.7557V20.528ZM87.4277 19.528V15.28H85.4277V19.528H87.4277ZM87.4277 15.28C87.4277 11.8664 86.5134 9.17802 84.5114 7.34285L83.16 8.81715C84.614 10.15 85.4277 12.2136 85.4277 15.28H87.4277ZM84.5428 8.7871L84.6868 8.6431L83.2726 7.2289L83.1286 7.3729L84.5428 8.7871ZM83.6286 8.87233C85.2892 9.49507 86.7087 10.2441 87.8362 11.1064L89.0511 9.51764C87.7307 8.50789 86.1262 7.67292 84.3308 6.99967L83.6286 8.87233ZM88.5102 11.3098L89.5902 11.2378L89.4572 9.24221L88.3772 9.31421L88.5102 11.3098ZM90.2749 10.9001C92.2318 8.6732 94.2818 7.64 96.4357 7.64V5.64C93.5496 5.64 90.9915 7.05479 88.7725 9.57988L90.2749 10.9001ZM95.7827 5.88259C93.4863 7.86231 92.3397 10.2937 92.3397 13.192H94.3397C94.3397 10.9063 95.2091 9.01769 97.0886 7.39741L95.7827 5.88259ZM92.3397 13.192V25.936H94.3397V13.192H92.3397ZM93.9323 26.7415L104.012 19.3255L102.827 17.7145L92.7471 25.1305L93.9323 26.7415ZM102.869 19.355C105.782 21.2745 107.172 23.7813 107.172 26.944H109.172C109.172 23.0507 107.394 19.9415 103.97 17.685L102.869 19.355ZM107.172 26.944V44.512H109.172V26.944H107.172ZM132.531 27.664L133.103 28.4838L134.081 27.8005L133.238 26.9569L132.531 27.664ZM120.075 37.096L119.423 36.338L119.075 36.6372V37.096H120.075ZM120.075 44.584H119.075V45.2362L119.672 45.4992L120.075 44.584ZM126.123 47.248L125.72 48.1632L126.209 48.3786L126.66 48.0917L126.123 47.248ZM130.875 44.224L131.612 43.5483L131.045 42.9302L130.338 43.3803L130.875 44.224ZM131.667 45.088L132.21 45.9276L133.204 45.2847L132.404 44.4123L131.667 45.088ZM127.707 47.752L127.133 46.9328L127.133 46.9332L127.707 47.752ZM121.443 52.144L120.964 53.0219L121.509 53.3191L122.017 52.9628L121.443 52.144ZM111.507 48.544L110.782 47.8553L109.516 49.1881L111.322 49.5269L111.507 48.544ZM113.523 24.064L113.107 23.1543L112.523 23.4212V24.064H113.523ZM123.243 18.376L123.95 17.6689L123.355 17.0738L122.667 17.5585L123.243 18.376ZM126.843 30.04L127.462 30.8249L128.336 30.1353L127.557 29.3403L126.843 30.04ZM120.003 23.056L120.717 22.3563L119.003 20.6058V23.056H120.003ZM120.003 35.44H119.003V37.5035L120.622 36.2249L120.003 35.44ZM131.958 26.8442C126.69 30.5247 122.555 33.6425 119.423 36.338L120.727 37.854C123.786 35.2215 127.86 32.1473 133.103 28.4838L131.958 26.8442ZM119.075 37.096V44.584H121.075V37.096H119.075ZM119.672 45.4992L125.72 48.1632L126.526 46.3328L120.478 43.6688L119.672 45.4992ZM126.66 48.0917L131.412 45.0677L130.338 43.3803L125.586 46.4043L126.66 48.0917ZM130.138 44.8997L130.93 45.7637L132.404 44.4123L131.612 43.5483L130.138 44.8997ZM131.123 44.2484C129.891 45.046 128.585 45.9168 127.133 46.9328L128.28 48.5712C129.709 47.5712 130.995 46.714 132.21 45.9276L131.123 44.2484ZM127.133 46.9332L120.869 51.3252L122.017 52.9628L128.281 48.5708L127.133 46.9332ZM121.922 51.2661C118.67 49.4924 115.259 48.2301 111.691 47.5611L111.322 49.5269C114.666 50.1539 117.88 51.3396 120.964 53.0219L121.922 51.2661ZM112.232 49.2327C113.791 47.5911 114.523 45.6097 114.523 43.288H112.523C112.523 45.1423 111.958 46.6169 110.782 47.8553L112.232 49.2327ZM114.523 43.288V24.064H112.523V43.288H114.523ZM113.938 24.9737C117.319 23.4301 120.613 21.452 123.819 19.1935L122.667 17.5585C119.536 19.764 116.35 21.6739 113.107 23.1543L113.938 24.9737ZM122.536 19.0831L131.824 28.3711L133.238 26.9569L123.95 17.6689L122.536 19.0831ZM127.557 29.3403L120.717 22.3563L119.288 23.7557L126.128 30.7397L127.557 29.3403ZM119.003 23.056V35.44H121.003V23.056H119.003ZM120.622 36.2249L127.462 30.8249L126.223 29.2551L119.383 34.6551L120.622 36.2249ZM208.522 44.44L209.388 44.9402L209.864 44.1169L209.066 43.6004L208.522 44.44ZM203.698 52.792L203.456 53.7621L204.187 53.945L204.564 53.2922L203.698 52.792ZM188.146 56.752L187.439 57.4591L188.302 58.3216L188.978 57.3067L188.146 56.752ZM187.714 56.32L186.735 56.1151L186.625 56.6446L187.007 57.0271L187.714 56.32ZM191.314 45.232L190.402 44.8224L190.395 44.8387L190.388 44.8552L191.314 45.232ZM196.066 34.504L196.982 34.9067L197.281 34.2254L196.715 33.7428L196.066 34.504ZM183.25 34.504L182.722 33.6547L182.25 33.9482V34.504H183.25ZM179.65 52.432L178.887 51.786L178.882 51.7918L179.65 52.432ZM162.946 55.528L163.224 54.5673L163.216 54.565L162.946 55.528ZM154.09 55.888L153.142 56.2042L153.5 57.2789L154.522 56.7901L154.09 55.888ZM154.018 55.672L153.21 55.0838L152.907 55.5L153.07 55.9882L154.018 55.672ZM157.258 52.072L157.876 52.8583L157.882 52.8538L157.887 52.8492L157.258 52.072ZM166.546 50.56L166.44 51.5543L166.448 51.5552L166.456 51.5559L166.546 50.56ZM168.778 50.704V51.704H168.837L168.895 51.6972L168.778 50.704ZM170.002 50.56V49.56H169.944L169.885 49.5668L170.002 50.56ZM171.586 41.416L172.092 40.5533L172.083 40.5483L172.075 40.5435L171.586 41.416ZM163.882 39.904L163.095 39.2877L161.83 40.904H163.882V39.904ZM172.234 37.744L172.009 38.7184L173.692 39.1067L173.191 37.454L172.234 37.744ZM163.954 31.12L164.041 32.1162L164.042 32.1162L163.954 31.12ZM162.298 31.264L161.472 30.7007L160.284 32.4429L162.385 32.2602L162.298 31.264ZM172.162 30.256L171.728 31.157L173.572 32.0447L173.14 30.0447L172.162 30.256ZM162.298 22.264L161.611 21.538L159.789 23.264H162.298V22.264ZM172.162 21.328L171.892 22.2906L173.162 22.648V21.328H172.162ZM172.162 15.424L171.644 14.569L171.162 14.861V15.424H172.162ZM189.73 4.768L190.033 3.81481L189.6 3.67752L189.212 3.91299L189.73 4.768ZM194.122 45.52L193.344 44.8917L191.152 47.6065L194.449 46.465L194.122 45.52ZM206.074 45.304L205.902 46.289L206.511 46.3956L206.878 45.8984L206.074 45.304ZM207.298 43.648L207.842 42.8084L207.053 42.298L206.494 43.0536L207.298 43.648ZM197.434 21.256L198.153 21.951L198.59 21.4995L198.373 20.9103L197.434 21.256ZM191.746 14.632L191.221 15.4828L191.229 15.4882L191.238 15.4934L191.746 14.632ZM183.25 11.968L183.339 10.9719L182.25 10.8752V11.968H183.25ZM183.25 21.472H182.25V21.9693L182.647 22.2694L183.25 21.472ZM197.794 22.912L198.784 22.7706L198.53 20.9899L197.152 22.1458L197.794 22.912ZM183.322 23.272L183.871 22.4363L182.322 21.4183V23.272H183.322ZM183.322 32.92H182.322V34.6767L183.833 33.7799L183.322 32.92ZM196.714 32.92L196.166 33.7565L197.269 34.479L197.667 33.2222L196.714 32.92ZM181.738 40.984L182.731 41.108L182.738 41.0463V40.984H181.738ZM181.738 12.112H182.738V10.494L181.291 11.2176L181.738 12.112ZM178.858 13.552L178.411 12.6576L177.858 12.934V13.552H178.858ZM177.994 46.096L178.933 46.4403L178.936 46.4324L178.939 46.4245L177.994 46.096ZM173.674 51.064L173.191 50.1884L172.518 50.5601L172.704 51.3065L173.674 51.064ZM173.746 51.352L172.776 51.5945L172.922 52.1766L173.504 52.3221L173.746 51.352ZM174.322 51.496L174.08 52.4661L174.199 52.496H174.322V51.496ZM181.666 41.56L180.674 41.436L180.666 41.4977V41.56H181.666ZM207.656 43.9398L202.832 52.2918L204.564 53.2922L209.388 44.9402L207.656 43.9398ZM203.941 51.8219C201.287 51.1584 198.972 50.856 196.93 50.856V52.856C198.776 52.856 200.926 53.1296 203.456 53.7621L203.941 51.8219ZM196.93 50.856C192.897 50.856 189.645 52.7018 187.314 56.1973L188.978 57.3067C190.968 54.3222 193.619 52.856 196.93 52.856V50.856ZM188.853 56.0449L188.421 55.6129L187.007 57.0271L187.439 57.4591L188.853 56.0449ZM188.693 56.5249C189.324 53.509 190.525 49.8259 192.241 45.6088L190.388 44.8552C188.647 49.1341 187.4 52.939 186.735 56.1151L188.693 56.5249ZM192.227 45.6416C193.812 42.1096 195.398 38.5061 196.982 34.9067L195.151 34.1013C193.567 37.7019 191.984 41.2984 190.402 44.8224L192.227 45.6416ZM196.715 33.7428C194.623 31.9607 192.384 31.056 190.018 31.056V33.056C191.829 33.056 193.622 33.7353 195.418 35.2652L196.715 33.7428ZM190.018 31.056C187.952 31.056 185.46 31.9531 182.722 33.6547L183.778 35.3533C186.369 33.7429 188.485 33.056 190.018 33.056V31.056ZM182.25 34.504V42.352H184.25V34.504H182.25ZM182.25 42.352C182.25 46.0136 181.104 49.1662 178.887 51.7861L180.414 53.0779C182.949 50.0818 184.25 46.4664 184.25 42.352H182.25ZM178.882 51.7918C176.545 54.5961 173.655 55.968 170.146 55.968V57.968C174.27 57.968 177.715 56.3159 180.418 53.0722L178.882 51.7918ZM170.146 55.968H169.282V57.968H170.146V55.968ZM169.282 55.968C168.902 55.968 168.225 55.8667 167.176 55.6246C166.15 55.3877 164.838 55.0336 163.224 54.5673L162.669 56.4887C164.294 56.9584 165.647 57.3243 166.726 57.5734C167.783 57.8173 168.654 57.968 169.282 57.968V55.968ZM163.216 54.565C161.399 54.0562 159.849 53.736 158.554 53.736V55.736C159.563 55.736 160.894 55.9918 162.677 56.491L163.216 54.565ZM158.554 53.736C157.077 53.736 155.417 54.1448 153.659 54.9859L154.522 56.7901C156.075 56.0472 157.44 55.736 158.554 55.736V53.736ZM155.039 55.5718L154.967 55.3558L153.07 55.9882L153.142 56.2042L155.039 55.5718ZM154.827 56.2602C155.957 54.7058 156.974 53.567 157.876 52.8583L156.64 51.2857C155.526 52.161 154.383 53.4702 153.21 55.0838L154.827 56.2602ZM157.887 52.8492C159.286 51.7171 160.582 51.2 161.794 51.2V49.2C159.982 49.2 158.255 49.9789 156.629 51.2948L157.887 52.8492ZM161.794 51.2H162.946V49.2H161.794V51.2ZM162.946 51.2C163.061 51.2 163.394 51.2281 164.021 51.2936C164.624 51.3565 165.425 51.4456 166.44 51.5543L166.653 49.5657C165.652 49.4584 164.833 49.3675 164.229 49.3044C163.65 49.2439 163.191 49.2 162.946 49.2V51.2ZM166.456 51.5559C167.233 51.6266 168.075 51.704 168.778 51.704V49.704C168.185 49.704 167.443 49.6374 166.637 49.5641L166.456 51.5559ZM168.895 51.6972L170.119 51.5532L169.885 49.5668L168.661 49.7108L168.895 51.6972ZM170.002 51.56C171.527 51.56 172.942 51.1063 173.993 50.2021C175.06 49.2848 175.682 47.9599 175.682 46.384H173.682C173.682 47.4001 173.297 48.1632 172.689 48.6859C172.066 49.2217 171.142 49.56 170.002 49.56V51.56ZM175.682 46.384C175.682 43.8898 174.439 41.9293 172.092 40.5533L171.081 42.2787C172.909 43.3507 173.682 44.7022 173.682 46.384H175.682ZM172.075 40.5435C170.118 39.4479 168.005 38.904 165.61 38.904V40.904C167.68 40.904 169.454 41.3681 171.098 42.2885L172.075 40.5435ZM165.61 38.904H163.882V40.904H165.61V38.904ZM164.67 40.5203C165.79 39.0892 167.163 38.384 168.922 38.384V36.384C166.505 36.384 164.567 37.4068 163.095 39.2877L164.67 40.5203ZM168.922 38.384C170.072 38.384 171.148 38.5197 172.009 38.7184L172.459 36.7696C171.448 36.5363 170.221 36.384 168.922 36.384V38.384ZM173.191 37.454C172.436 34.963 171.307 33.0115 169.72 31.7356C168.11 30.4416 166.133 29.9251 163.867 30.1238L164.042 32.1162C165.88 31.9549 167.322 32.3744 168.467 33.2944C169.634 34.2325 170.592 35.773 171.277 38.034L173.191 37.454ZM163.868 30.1238L162.212 30.2678L162.385 32.2602L164.041 32.1162L163.868 30.1238ZM163.124 31.8273C164.024 30.5086 165.158 29.888 166.762 29.888V27.888C164.478 27.888 162.733 28.8514 161.472 30.7007L163.124 31.8273ZM166.762 29.888C168.241 29.888 169.893 30.2734 171.728 31.157L172.596 29.355C170.543 28.3666 168.595 27.888 166.762 27.888V29.888ZM173.14 30.0447C172.529 27.2212 171.321 24.996 169.452 23.4845C167.583 21.9726 165.163 21.264 162.298 21.264V23.264C164.834 23.264 166.77 23.8874 168.194 25.0395C169.619 26.192 170.643 27.9628 171.185 30.4673L173.14 30.0447ZM162.986 22.99C164.17 21.8686 165.58 21.32 167.122 21.32V19.32C165.064 19.32 163.163 20.0674 161.611 21.538L162.986 22.99ZM167.122 21.32C168.044 21.32 169.573 21.6385 171.892 22.2906L172.433 20.3653C170.144 19.7215 168.36 19.32 167.122 19.32V21.32ZM173.162 21.328V15.424H171.162V21.328H173.162ZM172.681 16.279L190.249 5.62301L189.212 3.91299L171.644 14.569L172.681 16.279ZM189.428 5.72118C194.55 7.34618 198.3 9.50634 200.762 12.1461C203.203 14.7632 204.426 17.9012 204.426 21.616H206.426C206.426 17.4108 205.022 13.7808 202.225 10.7819C199.449 7.80566 195.35 5.50182 190.033 3.81481L189.428 5.72118ZM204.426 21.616C204.426 27.817 200.863 35.5826 193.344 44.8917L194.9 46.1483C202.501 36.7374 206.426 28.519 206.426 21.616H204.426ZM194.449 46.465C196.208 45.8561 197.969 45.584 199.81 45.584V43.584C197.763 43.584 195.78 43.8879 193.795 44.575L194.449 46.465ZM199.81 45.584C201.02 45.584 203.041 45.7884 205.902 46.289L206.247 44.319C203.347 43.8116 201.193 43.584 199.81 43.584V45.584ZM206.878 45.8984L208.102 44.2424L206.494 43.0536L205.27 44.7096L206.878 45.8984ZM206.755 44.4876L207.979 45.2796L209.066 43.6004L207.842 42.8084L206.755 44.4876ZM198.373 20.9103C197.28 17.9434 195.247 15.5356 192.254 13.7706L191.238 15.4934C193.861 17.0404 195.573 19.0966 196.496 21.6017L198.373 20.9103ZM192.272 13.7812C189.671 12.1747 186.708 11.2714 183.339 10.9719L183.162 12.9641C186.273 13.2406 188.926 14.0653 191.221 15.4828L192.272 13.7812ZM182.25 11.968V21.472H184.25V11.968H182.25ZM182.647 22.2694C185.412 24.3623 188.141 25.496 190.738 25.496V23.496C188.728 23.496 186.416 22.6137 183.854 20.6746L182.647 22.2694ZM190.738 25.496C193.453 25.496 195.93 24.2514 198.153 21.951L196.715 20.561C194.763 22.5806 192.776 23.496 190.738 23.496V25.496ZM199.154 25.864C199.154 25.3394 198.992 24.227 198.784 22.7706L196.804 23.0534C197.028 24.621 197.154 25.5245 197.154 25.864H199.154ZM197.152 22.1458C195.067 23.8942 192.912 24.72 190.738 24.72V26.72C193.461 26.72 196.057 25.6738 198.437 23.6782L197.152 22.1458ZM190.738 24.72C188.59 24.72 186.258 24.0046 183.871 22.4363L182.773 24.1077C185.426 25.8514 188.134 26.72 190.738 26.72V24.72ZM182.322 23.272V32.92H184.322V23.272H182.322ZM183.833 33.7799C185.999 32.4938 188.128 31.904 190.234 31.904V29.904C187.732 29.904 185.254 30.6102 182.812 32.0601L183.833 33.7799ZM190.234 31.904C192.259 31.904 194.23 32.4881 196.166 33.7565L197.262 32.0835C195.022 30.6159 192.673 29.904 190.234 29.904V31.904ZM197.667 33.2222C198.611 30.2467 199.154 27.7508 199.154 25.864H197.154C197.154 27.4332 196.69 29.6893 195.761 32.6178L197.667 33.2222ZM182.738 40.984V12.112H180.738V40.984H182.738ZM181.291 11.2176L178.411 12.6576L179.305 14.4464L182.185 13.0064L181.291 11.2176ZM177.858 13.552V39.4H179.858V13.552H177.858ZM177.858 39.4C177.858 42.155 177.574 44.2612 177.05 45.7675L178.939 46.4245C179.567 44.6188 179.858 42.261 179.858 39.4H177.858ZM177.055 45.7517C176.35 47.6766 175.077 49.1482 173.191 50.1884L174.157 51.9396C176.448 50.6758 178.055 48.8354 178.933 46.4403L177.055 45.7517ZM172.704 51.3065L172.776 51.5945L174.716 51.1095L174.644 50.8215L172.704 51.3065ZM173.504 52.3221L174.08 52.4661L174.565 50.5259L173.989 50.3819L173.504 52.3221ZM174.322 52.496C177.02 52.496 179.185 51.5674 180.634 49.6064C182.042 47.7019 182.666 44.9659 182.666 41.56H180.666C180.666 44.7781 180.066 47.0101 179.026 48.4176C178.028 49.7686 176.521 50.496 174.322 50.496V52.496ZM182.659 41.684L182.731 41.108L180.746 40.86L180.674 41.436L182.659 41.684ZM233.907 46.888L234.194 47.8458L234.907 47.632V46.888H233.907ZM223.251 52.432L222.658 53.2374L223.294 53.7054L223.897 53.1954L223.251 52.432ZM210.291 46.744L209.651 45.9758L208.062 47.2998L210.086 47.7229L210.291 46.744ZM212.235 24.136L211.967 23.1725L211.235 23.3759V24.136H212.235ZM222.459 18.376L223.004 17.5379L222.351 17.1126L221.779 17.6426L222.459 18.376ZM233.907 23.416H234.907V22.5458L234.045 22.4256L233.907 23.416ZM227.139 46.744L226.876 47.7088L228.139 48.0532V46.744H227.139ZM227.139 26.944H228.139V26.2559L227.496 26.01L227.139 26.944ZM218.859 23.776L219.216 22.842L217.859 22.3227V23.776H218.859ZM218.859 43.648H217.859V44.3194L218.48 44.5735L218.859 43.648ZM223.971 45.664L224.333 44.732L224.321 44.7274L224.309 44.7231L223.971 45.664ZM233.619 45.9302C229.188 47.2595 225.533 49.191 222.605 51.6686L223.897 53.1954C226.585 50.921 229.985 49.1085 234.194 47.8458L233.619 45.9302ZM223.843 51.6266C219.904 48.7274 215.449 46.8003 210.495 45.7651L210.086 47.7229C214.78 48.7037 218.966 50.5206 222.658 53.2374L223.843 51.6266ZM210.931 47.5122C212.555 46.1591 213.235 44.0003 213.235 41.2H211.235C211.235 43.7277 210.619 45.1689 209.651 45.9758L210.931 47.5122ZM213.235 41.2V24.136H211.235V41.2H213.235ZM212.502 25.0995C216.552 23.9746 220.076 21.9483 223.139 19.1094L221.779 17.6426C218.938 20.2757 215.694 22.1374 211.967 23.1725L212.502 25.0995ZM221.913 19.2141C226.501 22.1996 230.461 23.9449 233.769 24.4064L234.045 22.4256C231.16 22.023 227.489 20.4564 223.004 17.5379L221.913 19.2141ZM232.907 23.416V46.888H234.907V23.416H232.907ZM228.139 46.744V26.944H226.139V46.744H228.139ZM227.496 26.01L219.216 22.842L218.501 24.71L226.781 27.878L227.496 26.01ZM217.859 23.776V43.648H219.859V23.776H217.859ZM218.48 44.5735C220.055 45.2179 221.807 45.9479 223.632 46.6049L224.309 44.7231C222.535 44.0841 220.83 43.3741 219.237 42.7225L218.48 44.5735ZM223.608 46.596C224.926 47.1083 226.04 47.4809 226.876 47.7088L227.402 45.7792C226.653 45.5751 225.608 45.2277 224.333 44.732L223.608 46.596ZM261.751 46.888L262.038 47.8458L262.751 47.632V46.888H261.751ZM251.095 52.432L250.502 53.2374L251.138 53.7054L251.74 53.1954L251.095 52.432ZM238.135 46.744L237.494 45.9758L235.905 47.2998L237.93 47.7229L238.135 46.744ZM240.079 24.136L239.811 23.1725L239.079 23.3759V24.136H240.079ZM250.303 18.376L250.848 17.5379L250.195 17.1126L249.623 17.6426L250.303 18.376ZM261.751 23.416H262.751V22.5458L261.889 22.4256L261.751 23.416ZM254.983 46.744L254.719 47.7088L255.983 48.0532V46.744H254.983ZM254.983 26.944H255.983V26.2559L255.34 26.01L254.983 26.944ZM246.703 23.776L247.06 22.842L245.703 22.3227V23.776H246.703ZM246.703 43.648H245.703V44.3194L246.324 44.5735L246.703 43.648ZM251.815 45.664L252.177 44.732L252.165 44.7274L252.153 44.7231L251.815 45.664ZM261.463 45.9302C257.032 47.2595 253.377 49.191 250.449 51.6686L251.74 53.1954C254.428 50.921 257.829 49.1085 262.038 47.8458L261.463 45.9302ZM251.687 51.6266C247.747 48.7274 243.293 46.8003 238.339 45.7651L237.93 47.7229C242.624 48.7037 246.81 50.5206 250.502 53.2374L251.687 51.6266ZM238.775 47.5122C240.398 46.1591 241.079 44.0003 241.079 41.2H239.079C239.079 43.7277 238.463 45.1689 237.494 45.9758L238.775 47.5122ZM241.079 41.2V24.136H239.079V41.2H241.079ZM240.346 25.0995C244.396 23.9746 247.919 21.9483 250.982 19.1094L249.623 17.6426C246.782 20.2757 243.537 22.1374 239.811 23.1725L240.346 25.0995ZM249.757 19.2141C254.344 22.1996 258.305 23.9449 261.612 24.4064L261.889 22.4256C259.004 22.023 255.333 20.4564 250.848 17.5379L249.757 19.2141ZM260.751 23.416V46.888H262.751V23.416H260.751ZM255.983 46.744V26.944H253.983V46.744H255.983ZM255.34 26.01L247.06 22.842L246.345 24.71L254.625 27.878L255.34 26.01ZM245.703 23.776V43.648H247.703V23.776H245.703ZM246.324 44.5735C247.899 45.2179 249.651 45.9479 251.476 46.6049L252.153 44.7231C250.378 44.0841 248.674 43.3741 247.081 42.7225L246.324 44.5735ZM251.452 46.596C252.769 47.1083 253.884 47.4809 254.719 47.7088L255.246 45.7792C254.497 45.5751 253.452 45.2277 252.177 44.732L251.452 46.596ZM295.426 47.104L296.061 47.8764L296.913 47.1763L296.133 46.3969L295.426 47.104ZM288.946 52.432L288.404 53.272L289.017 53.6683L289.581 53.2044L288.946 52.432ZM284.554 26.584H285.554V26.1274L285.209 25.8283L284.554 26.584ZM281.314 23.776L281.969 23.0203L281.367 22.4981L280.723 22.9692L281.314 23.776ZM276.202 27.52L275.611 26.7132L275.202 27.0129V27.52H276.202ZM276.202 45.376H275.202V45.7248L275.419 45.9979L276.202 45.376ZM278.146 47.824L278.811 48.5714L279.518 47.9429L278.929 47.2021L278.146 47.824ZM272.962 52.432L272.318 53.1969L272.98 53.7542L273.627 53.1794L272.962 52.432ZM267.49 47.824L266.748 47.1537L266.054 47.922L266.846 48.5889L267.49 47.824ZM269.506 45.592L270.248 46.2623L270.506 45.9768V45.592H269.506ZM267.778 23.776L268.409 22.9999L267.828 22.5281L267.212 22.952L267.778 23.776ZM266.626 24.568L265.886 25.2407L266.473 25.8866L267.193 25.392L266.626 24.568ZM265.906 23.776L265.231 23.0381L264.496 23.711L265.166 24.4487L265.906 23.776ZM271.81 18.376L272.322 17.5167L271.683 17.1368L271.135 17.6381L271.81 18.376ZM276.346 25.936H275.346V27.9075L276.937 26.7429L276.346 25.936ZM285.562 18.52L286.242 17.7868L285.561 17.1549L284.881 17.7881L285.562 18.52ZM290.53 23.128L289.85 23.8612L290.478 24.4438L291.15 23.9124L290.53 23.128ZM293.626 20.68L294.366 20.0073L293.738 19.3166L293.006 19.8956L293.626 20.68ZM294.346 21.472L295.131 22.0916L295.656 21.4264L295.086 20.7993L294.346 21.472ZM291.178 26.008L290.324 25.4881L290.178 25.7276V26.008H291.178ZM291.178 44.944H290.178V45.144L290.255 45.3286L291.178 44.944ZM293.194 47.248L292.625 48.0702L293.143 48.4289L293.69 48.1162L293.194 47.248ZM294.706 46.384L295.413 45.6769L294.873 45.1368L294.21 45.5158L294.706 46.384ZM294.791 46.3316L288.311 51.6596L289.581 53.2044L296.061 47.8764L294.791 46.3316ZM289.489 51.592C287.844 50.5297 286.906 49.5705 286.35 48.4502C285.786 47.3142 285.554 45.8954 285.554 43.792H283.554C283.554 46.0086 283.791 47.7938 284.559 49.3398C285.334 50.9015 286.593 52.1023 288.404 53.272L289.489 51.592ZM285.554 43.792V26.584H283.554V43.792H285.554ZM285.209 25.8283L281.969 23.0203L280.659 24.5317L283.899 27.3397L285.209 25.8283ZM280.723 22.9692L275.611 26.7132L276.793 28.3268L281.905 24.5828L280.723 22.9692ZM275.202 27.52V45.376H277.202V27.52H275.202ZM275.419 45.9979L277.363 48.4459L278.929 47.2021L276.985 44.7541L275.419 45.9979ZM277.482 47.0766L272.298 51.6846L273.627 53.1794L278.811 48.5714L277.482 47.0766ZM273.606 51.6671L268.134 47.0591L266.846 48.5889L272.318 53.1969L273.606 51.6671ZM268.232 48.4943L270.248 46.2623L268.764 44.9217L266.748 47.1537L268.232 48.4943ZM270.506 45.592V27.088H268.506V45.592H270.506ZM270.506 27.088C270.506 25.5169 269.756 24.0948 268.409 22.9999L267.148 24.5521C268.104 25.3292 268.506 26.2111 268.506 27.088H270.506ZM267.212 22.952L266.06 23.744L267.193 25.392L268.345 24.6L267.212 22.952ZM267.366 23.8953L266.646 23.1033L265.166 24.4487L265.886 25.2407L267.366 23.8953ZM266.581 24.5139L272.485 19.1139L271.135 17.6381L265.231 23.0381L266.581 24.5139ZM271.299 19.2353C274.051 20.8738 275.346 23.0838 275.346 25.936H277.346C277.346 22.3082 275.617 19.4782 272.322 17.5167L271.299 19.2353ZM276.937 26.7429C280.987 23.7779 284.117 21.2323 286.244 19.2519L284.881 17.7881C282.832 19.6957 279.77 22.1901 275.756 25.1291L276.937 26.7429ZM284.882 19.2532L289.85 23.8612L291.21 22.3948L286.242 17.7868L284.882 19.2532ZM291.15 23.9124L294.246 21.4644L293.006 19.8956L289.91 22.3436L291.15 23.9124ZM292.886 21.3527L293.606 22.1447L295.086 20.7993L294.366 20.0073L292.886 21.3527ZM293.561 20.8524C292.46 22.2469 291.356 23.7922 290.324 25.4881L292.032 26.5279C293.016 24.9118 294.072 23.4331 295.131 22.0916L293.561 20.8524ZM290.178 26.008V44.944H292.178V26.008H290.178ZM290.255 45.3286C290.71 46.4212 291.585 47.3504 292.625 48.0702L293.763 46.4258C292.931 45.8496 292.366 45.1948 292.101 44.5594L290.255 45.3286ZM293.69 48.1162L295.202 47.2522L294.21 45.5158L292.698 46.3798L293.69 48.1162ZM293.999 47.0911L294.719 47.8111L296.133 46.3969L295.413 45.6769L293.999 47.0911ZM324.108 47.032L324.75 47.7988L325.676 47.0231L324.741 46.258L324.108 47.032ZM317.916 52.216L317.444 53.0978L318.04 53.4164L318.558 52.9828L317.916 52.216ZM313.308 44.44H314.308V42.357L312.683 43.6597L313.308 44.44ZM303.516 52.288V53.288H303.867L304.142 53.0683L303.516 52.288ZM303.156 52.288L302.473 53.018L302.761 53.288H303.156V52.288ZM305.172 30.04L305.839 30.7855L306.353 30.3257L306.106 29.6815L305.172 30.04ZM301.716 21.04L301.793 20.0429L300.215 19.9216L300.783 21.3985L301.716 21.04ZM302.652 21.112L302.733 20.1153L302.729 20.1149L302.652 21.112ZM310.068 18.304L310.382 17.3546L309.819 17.1681L309.385 17.5737L310.068 18.304ZM320.292 21.688L319.978 22.6373L320.488 22.8061L320.91 22.4743L320.292 21.688ZM322.308 20.104L323.203 19.6568L322.654 18.5603L321.69 19.3177L322.308 20.104ZM322.452 20.392L323.294 20.9311L323.601 20.4527L323.347 19.9448L322.452 20.392ZM320.004 25.936L319.036 25.685L319.004 25.8085V25.936H320.004ZM320.004 44.8H319.004V44.944L319.045 45.0822L320.004 44.8ZM322.02 47.032L321.726 47.9878L322.109 48.1056L322.467 47.9264L322.02 47.032ZM323.316 46.384L323.949 45.61L323.448 45.2L322.869 45.4896L323.316 46.384ZM313.308 33.496L312.871 34.3956L314.308 35.093V33.496H313.308ZM313.308 25.576H314.308V24.8813L313.657 24.6389L313.308 25.576ZM302.868 21.688L303.217 20.7509L301.177 19.9912L301.93 22.0337L302.868 21.688ZM305.892 29.896L304.954 30.2417L305.093 30.6197L305.455 30.7956L305.892 29.896ZM313.38 42.568L314.029 43.3287L314.38 43.0293V42.568H313.38ZM313.38 34.792H314.38V34.174L313.827 33.8976L313.38 34.792ZM305.892 31.048L306.339 30.1536L305.485 29.7264L305.019 30.5602L305.892 31.048ZM307.98 47.176L307.273 47.8831L307.926 48.5365L308.629 47.9367L307.98 47.176ZM323.466 46.2652L317.274 51.4492L318.558 52.9828L324.75 47.7988L323.466 46.2652ZM318.388 51.3342C316.975 50.5787 315.97 49.6362 315.312 48.5217C314.654 47.4059 314.308 46.0584 314.308 44.44H312.308C312.308 46.3496 312.719 48.0621 313.59 49.5383C314.462 51.0158 315.761 52.1973 317.444 53.0978L318.388 51.3342ZM312.683 43.6597L302.891 51.5077L304.142 53.0683L313.934 45.2203L312.683 43.6597ZM303.516 51.288H303.156V53.288H303.516V51.288ZM303.84 51.558C300.542 48.471 299.044 45.6213 299.044 43.072H297.044C297.044 46.4267 299.002 49.769 302.473 53.018L303.84 51.558ZM299.044 43.072C299.044 38.9994 301.203 34.9291 305.839 30.7855L304.506 29.2945C299.637 33.6469 297.044 38.2166 297.044 43.072H299.044ZM306.106 29.6815L302.65 20.6815L300.783 21.3985L304.239 30.3985L306.106 29.6815ZM301.639 22.0371L302.575 22.1091L302.729 20.1149L301.793 20.0429L301.639 22.0371ZM302.571 22.1087C305.551 22.3503 308.341 21.2894 310.751 19.0343L309.385 17.5737C307.332 19.4946 305.081 20.3057 302.733 20.1153L302.571 22.1087ZM309.754 19.2533L319.978 22.6373L320.606 20.7386L310.382 17.3546L309.754 19.2533ZM320.91 22.4743L322.926 20.8903L321.69 19.3177L319.674 20.9017L320.91 22.4743ZM321.414 20.5512L321.558 20.8392L323.347 19.9448L323.203 19.6568L321.414 20.5512ZM321.61 19.8529C320.404 21.7371 319.568 23.6338 319.036 25.685L320.972 26.187C321.448 24.3502 322.196 22.6469 323.294 20.9311L321.61 19.8529ZM319.004 25.936V44.8H321.004V25.936H319.004ZM319.045 45.0822C319.485 46.5807 320.425 47.5874 321.726 47.9878L322.314 46.0762C321.743 45.9006 321.243 45.4673 320.963 44.5178L319.045 45.0822ZM322.467 47.9264L323.763 47.2784L322.869 45.4896L321.573 46.1376L322.467 47.9264ZM322.683 47.158L323.475 47.806L324.741 46.258L323.949 45.61L322.683 47.158ZM314.308 33.496V25.576H312.308V33.496H314.308ZM313.657 24.6389L303.217 20.7509L302.519 22.6251L312.959 26.5131L313.657 24.6389ZM301.93 22.0337L304.954 30.2417L306.83 29.5503L303.806 21.3423L301.93 22.0337ZM305.455 30.7956L312.871 34.3956L313.745 32.5964L306.329 28.9964L305.455 30.7956ZM314.38 42.568V34.792H312.38V42.568H314.38ZM313.827 33.8976L306.339 30.1536L305.445 31.9424L312.933 35.6864L313.827 33.8976ZM305.019 30.5602C303.593 33.113 302.804 35.6568 302.804 38.104H304.804C304.804 36.0872 305.456 33.879 306.765 31.5358L305.019 30.5602ZM302.804 38.104C302.804 41.6603 304.317 44.9271 307.273 47.8831L308.687 46.4689C306.027 43.8089 304.804 41.0277 304.804 38.104H302.804ZM308.629 47.9367L314.029 43.3287L312.731 41.8073L307.331 46.4153L308.629 47.9367ZM337.607 9.736L338.536 10.1048L338.785 9.4774L338.297 9.01186L337.607 9.736ZM328.175 20.968L327.432 21.637L328.004 22.2726L328.72 21.8061L328.175 20.968ZM326.879 19.528L326.224 18.7723L325.454 19.4396L326.136 20.197L326.879 19.528ZM326.879 9.736L326.191 9.01005L325.458 9.70514L326.16 10.4314L326.879 9.736ZM332.351 4.552L333.058 3.84489L332.37 3.15664L331.663 3.82604L332.351 4.552ZM334.295 6.568L333.56 7.24628L333.574 7.26097L333.588 7.2751L334.295 6.568ZM336.678 9.36715C334.959 13.6969 332.005 17.2824 327.63 20.1299L328.72 21.8061C333.417 18.7496 336.655 14.8471 338.536 10.1048L336.678 9.36715ZM328.918 20.299L327.622 18.859L326.136 20.197L327.432 21.637L328.918 20.299ZM327.534 20.2837C328.651 19.3157 329.528 18.3895 330.132 17.5127C330.729 16.6472 331.119 15.7455 331.119 14.848H329.119C329.119 15.1745 328.969 15.6768 328.486 16.3773C328.01 17.0665 327.267 17.8683 326.224 18.7723L327.534 20.2837ZM331.119 14.848C331.119 13.9893 330.73 13.0738 330.154 12.163C329.565 11.2289 328.704 10.184 327.598 9.04058L326.16 10.4314C327.214 11.52 327.973 12.4551 328.464 13.231C328.968 14.0302 329.119 14.5547 329.119 14.848H331.119ZM327.567 10.462L333.039 5.27795L331.663 3.82604L326.191 9.01005L327.567 10.462ZM331.644 5.2591C332.073 5.68855 332.71 6.32526 333.56 7.24628L335.03 5.88972C334.152 4.93873 333.493 4.27945 333.058 3.84489L331.644 5.2591ZM333.588 7.2751C334.247 7.93459 335.418 9.03209 336.917 10.4601L338.297 9.01186C336.772 7.5599 335.639 6.4974 335.002 5.86089L333.588 7.2751ZM363.649 20.968L364.452 21.5628L364.456 21.558L363.649 20.968ZM357.097 29.824L356.293 29.2292L355.646 30.1038L356.571 30.675L357.097 29.824ZM363.865 34H364.865V33.442L364.39 33.149L363.865 34ZM363.865 47.248L364.168 48.2009L364.865 47.9792V47.248H363.865ZM359.185 49.408L358.658 48.5577L358.648 48.5643L359.185 49.408ZM354.937 52.144L354.489 53.0384L355.013 53.3004L355.498 52.9715L354.937 52.144ZM340.393 51.928L339.823 52.7502L340.278 53.065L340.786 52.8471L340.393 51.928ZM339.457 51.28L338.637 50.7065L338.061 51.53L338.887 52.1022L339.457 51.28ZM348.025 39.04L348.844 39.6135L349.482 38.7022L348.508 38.1646L348.025 39.04ZM341.113 35.224H340.113V35.8142L340.629 36.0994L341.113 35.224ZM341.113 24.136L340.706 23.2222L340.113 23.4861V24.136H341.113ZM349.969 18.16L350.409 17.2623L349.786 16.9563L349.281 17.4335L349.969 18.16ZM359.185 21.112V22.112H359.242L359.299 22.1054L359.185 21.112ZM361.057 20.896V19.896H360.999L360.942 19.9026L361.057 20.896ZM362.209 15.64L361.334 16.1256L361.374 16.1962L361.424 16.2596L362.209 15.64ZM361.849 14.992H360.849V15.2511L360.974 15.4776L361.849 14.992ZM358.753 25.072L359.55 25.676L361.114 23.6118L358.568 24.0891L358.753 25.072ZM347.521 23.776L347.896 22.8493L346.533 22.2967L346.521 23.7673L347.521 23.776ZM347.449 32.056L346.449 32.0473L346.443 32.6622L346.989 32.9444L347.449 32.056ZM351.769 34.288L351.309 35.1764L352.057 35.5627L352.566 34.892L351.769 34.288ZM357.889 37.096L358.888 37.1035L358.893 36.4847L358.341 36.2044L357.889 37.096ZM353.353 34.792L353.805 33.9004L353.066 33.5251L352.56 34.1815L353.353 34.792ZM345.361 45.16L344.568 44.5495L342.884 46.7347L345.577 46.1362L345.361 45.16ZM357.816 46.672L357.379 47.5712L358.805 48.2647L358.816 46.6795L357.816 46.672ZM364.737 16.504C364.737 16.8374 364.62 17.3326 364.3 18.0137C363.985 18.6841 363.502 19.4737 362.841 20.378L364.456 21.558C365.163 20.5903 365.724 19.6879 366.111 18.8643C366.493 18.0514 366.737 17.2506 366.737 16.504H364.737ZM362.845 20.3732L356.293 29.2292L357.9 30.4188L364.452 21.5628L362.845 20.3732ZM356.571 30.675L363.339 34.851L364.39 33.149L357.622 28.973L356.571 30.675ZM362.865 34V47.248H364.865V34H362.865ZM363.561 46.2951C361.899 46.8239 360.24 47.5783 358.658 48.5577L359.711 50.2583C361.153 49.3657 362.662 48.6801 364.168 48.2009L363.561 46.2951ZM358.648 48.5643C357.878 49.0541 356.407 49.9376 354.375 51.3165L355.498 52.9715C357.498 51.6144 358.907 50.7699 359.721 50.2517L358.648 48.5643ZM355.384 51.2496C352.825 49.9702 350.224 49.272 347.665 49.272V51.272C349.857 51.272 352.152 51.8698 354.489 53.0384L355.384 51.2496ZM347.665 49.272C345.121 49.272 342.61 49.8897 339.999 51.0089L340.786 52.8471C343.215 51.8063 345.456 51.272 347.665 51.272V49.272ZM340.962 51.1058L340.026 50.4578L338.887 52.1022L339.823 52.7502L340.962 51.1058ZM340.276 51.8535L348.844 39.6135L347.205 38.4665L338.637 50.7065L340.276 51.8535ZM348.508 38.1646L341.596 34.3486L340.629 36.0994L347.541 39.9154L348.508 38.1646ZM342.113 35.224V24.136H340.113V35.224H342.113ZM341.519 25.0498C344.871 23.5599 347.916 21.4777 350.656 18.8865L349.281 17.4335C346.693 19.8823 343.834 21.8321 340.706 23.2222L341.519 25.0498ZM349.528 19.0577C353.502 21.0086 356.705 22.112 359.185 22.112V20.112C357.2 20.112 354.355 19.1994 350.409 17.2623L349.528 19.0577ZM359.299 22.1054L361.171 21.8894L360.942 19.9026L359.07 20.1186L359.299 22.1054ZM361.057 21.896C362.012 21.896 362.928 21.4992 363.604 20.8942C364.282 20.288 364.793 19.4025 364.793 18.376H362.793C362.793 18.7174 362.619 19.092 362.271 19.4038C361.921 19.7168 361.469 19.896 361.057 19.896V21.896ZM364.793 18.376C364.793 17.8429 364.546 17.3047 364.271 16.8303C363.975 16.3199 363.545 15.7189 362.993 15.0204L361.424 16.2596C361.952 16.9291 362.314 17.444 362.54 17.8337C362.787 18.2593 362.793 18.4051 362.793 18.376H364.793ZM363.083 15.1544L362.723 14.5064L360.974 15.4776L361.334 16.1256L363.083 15.1544ZM362.849 14.992C362.849 14.915 362.862 14.9024 362.852 14.9223C362.84 14.9477 362.822 14.9594 362.829 14.955C362.844 14.9455 362.9 14.9142 363.029 14.8866C363.158 14.859 363.337 14.84 363.577 14.84V12.84C362.932 12.84 362.263 12.9341 361.732 13.283C361.12 13.6845 360.849 14.313 360.849 14.992H362.849ZM363.577 14.84C364.089 14.84 364.303 14.9842 364.422 15.1294C364.573 15.3147 364.737 15.71 364.737 16.504H366.737C366.737 15.498 366.54 14.5613 365.971 13.8646C365.37 13.1278 364.504 12.84 363.577 12.84V14.84ZM358.568 24.0891C357.507 24.2882 356.211 24.36 354.721 24.36V26.36C356.254 26.36 357.694 26.2878 358.937 26.0549L358.568 24.0891ZM354.721 24.36C352.718 24.36 350.47 23.8928 347.896 22.8493L347.145 24.7027C349.899 25.8192 352.403 26.36 354.721 26.36V24.36ZM346.521 23.7673L346.449 32.0473L348.448 32.0647L348.52 23.7847L346.521 23.7673ZM346.989 32.9444L351.309 35.1764L352.228 33.3996L347.908 31.1676L346.989 32.9444ZM352.566 34.892L359.55 25.676L357.955 24.468L350.971 33.684L352.566 34.892ZM358.341 36.2044L353.805 33.9004L352.9 35.6836L357.436 37.9876L358.341 36.2044ZM352.56 34.1815L344.568 44.5495L346.153 45.7705L354.145 35.4025L352.56 34.1815ZM345.577 46.1362C346.781 45.8687 348.288 45.728 350.041 45.728V43.728C348.193 43.728 346.532 43.8753 345.144 44.1838L345.577 46.1362ZM350.041 45.728C352.385 45.728 354.828 46.33 357.379 47.5712L358.254 45.7728C355.477 44.422 352.736 43.728 350.041 43.728V45.728ZM358.816 46.6795L358.888 37.1035L356.889 37.0885L356.817 46.6645L358.816 46.6795ZM436.411 4.624H437.411V3.77687L436.575 3.6376L436.411 4.624ZM432.739 12.472L433.327 13.2807L433.331 13.2776L432.739 12.472ZM424.315 14.632L424.403 13.6359L424.398 13.6355L424.315 14.632ZM423.451 14.56L423.534 13.5635L422.451 13.4732V14.56H423.451ZM423.451 46.24H422.451V47.6025L423.751 47.194L423.451 46.24ZM435.763 36.664L436.277 35.8065L435.454 35.3125L434.927 36.1151L435.763 36.664ZM436.123 36.88L437.085 37.1515L437.293 36.4158L436.637 36.0225L436.123 36.88ZM422.659 52L422.414 51.0305L422.408 51.032L422.659 52ZM398.467 44.08L399.281 43.4997L399.279 43.4971L398.467 44.08ZM395.731 27.592L394.763 27.3396L394.763 27.341L395.731 27.592ZM400.339 18.664L401.105 19.3062L401.114 19.2959L401.122 19.2854L400.339 18.664ZM407.755 11.824L408.369 12.6133L410.497 10.9577L407.804 10.8252L407.755 11.824ZM403.363 11.608L403.412 10.6092L403.404 10.6088L403.396 10.6086L403.363 11.608ZM397.315 12.976L396.841 12.0955L396.832 12.1004L396.823 12.1054L397.315 12.976ZM392.131 18.232V19.232H392.645L392.944 18.8132L392.131 18.232ZM391.843 18.232L390.856 18.0715L390.667 19.232H391.843V18.232ZM417.979 5.92L418.233 4.95285L418.221 4.94985L417.979 5.92ZM423.379 7.432L423.658 6.47165L423.657 6.47165L423.379 7.432ZM435.979 4.552L436.143 3.5656L435.471 3.45367L435.121 4.0375L435.979 4.552ZM421.867 46.528L422.092 47.5024L422.867 47.3235V46.528H421.867ZM421.867 14.488H422.867V13.6682L422.063 13.5074L421.867 14.488ZM417.187 13.552L417.383 12.5714L416.187 12.3322V13.552H417.187ZM415.171 36.592L414.311 36.0814L414.307 36.0881L415.171 36.592ZM409.339 43.144L408.66 42.4099L407.779 43.2244L408.739 43.944L409.339 43.144ZM420.931 46.744V47.744H421.045L421.156 47.7184L420.931 46.744ZM410.131 12.328H411.131V11.5597L410.388 11.3618L410.131 12.328ZM409.051 12.04L409.308 11.0738L408.732 10.9202L408.323 11.3537L409.051 12.04ZM407.755 42.064L407.061 42.7841L407.751 43.4496L408.445 42.7874L407.755 42.064ZM435.411 4.624C435.411 7.80785 434.303 10.0804 432.146 11.6663L433.331 13.2776C436.07 11.2636 437.411 8.35214 437.411 4.624H435.411ZM432.151 11.6633C429.991 13.2335 427.43 13.905 424.403 13.6359L424.226 15.6281C427.679 15.935 430.734 15.1665 433.327 13.2807L432.151 11.6633ZM424.398 13.6355L423.534 13.5635L423.368 15.5565L424.232 15.6285L424.398 13.6355ZM422.451 14.56V46.24H424.451V14.56H422.451ZM423.751 47.194C429.028 45.5354 433.314 42.214 436.599 37.2129L434.927 36.1151C431.875 40.762 427.954 43.7766 423.151 45.286L423.751 47.194ZM435.248 37.5215L435.608 37.7375L436.637 36.0225L436.277 35.8065L435.248 37.5215ZM435.16 36.6085C432.85 44.7986 428.52 49.487 422.414 51.0305L422.904 52.9695C429.901 51.201 434.643 45.8094 437.085 37.1515L435.16 36.6085ZM422.408 51.032C420.557 51.5118 418.627 51.72 416.755 51.72V53.72C418.771 53.72 420.872 53.4962 422.91 52.968L422.408 51.032ZM416.755 51.72C408.96 51.72 403.168 48.9552 399.281 43.4997L397.652 44.6603C401.973 50.7248 408.421 53.72 416.755 53.72V51.72ZM399.279 43.4971C397.027 40.3581 395.939 36.8907 395.939 33.064H393.939C393.939 37.3013 395.154 41.1779 397.654 44.6629L399.279 43.4971ZM395.939 33.064C395.939 31.5165 396.209 29.7318 396.699 27.843L394.763 27.341C394.244 29.3402 393.939 31.2995 393.939 33.064H395.939ZM396.698 27.8444C397.525 24.6749 398.969 21.8561 401.105 19.3062L399.572 18.0218C397.245 20.7998 395.664 23.8851 394.763 27.3396L396.698 27.8444ZM401.122 19.2854C402.7 17.2955 405.141 15.1235 408.369 12.6133L407.141 11.0346C403.888 13.5645 401.289 15.8565 399.555 18.0426L401.122 19.2854ZM407.804 10.8252L403.412 10.6092L403.314 12.6068L407.706 12.8228L407.804 10.8252ZM403.396 10.6086C401.074 10.5312 398.881 10.9968 396.841 12.0955L397.789 13.8565C399.492 12.9391 401.331 12.5408 403.329 12.6074L403.396 10.6086ZM396.823 12.1054C394.975 13.1496 393.144 15.0922 391.317 17.6508L392.944 18.8132C394.717 16.3318 396.342 14.6744 397.807 13.8466L396.823 12.1054ZM392.131 17.232H391.843V19.232H392.131V17.232ZM392.83 18.3925C393.519 14.1542 395.218 11.0972 397.858 9.08192C400.515 7.05396 404.252 5.984 409.195 5.984V3.984C403.985 3.984 399.766 5.11003 396.645 7.49208C393.507 9.88678 391.607 13.4538 390.856 18.0715L392.83 18.3925ZM409.195 5.984C412.38 5.984 415.246 6.26756 417.736 6.89014L418.221 4.94985C415.528 4.27643 412.49 3.984 409.195 3.984V5.984ZM417.724 6.88707C419.081 7.24402 420.872 7.74541 423.1 8.39234L423.657 6.47165C421.422 5.82259 419.613 5.31598 418.233 4.95292L417.724 6.88707ZM423.1 8.39234C425.394 9.05829 427.362 9.368 428.995 9.368V7.368C427.603 7.368 425.828 7.10171 423.658 6.47165L423.1 8.39234ZM428.995 9.368C432.495 9.368 435.134 7.90336 436.836 5.06649L435.121 4.0375C433.799 6.24064 431.83 7.368 428.995 7.368V9.368ZM435.814 5.53839L436.246 5.61039L436.575 3.6376L436.143 3.5656L435.814 5.53839ZM422.867 46.528V14.488H420.867V46.528H422.867ZM422.063 13.5074L417.383 12.5714L416.991 14.5326L421.671 15.4686L422.063 13.5074ZM416.187 13.552V28.24H418.187V13.552H416.187ZM416.187 28.24C416.187 31.3496 415.565 33.9694 414.311 36.0815L416.031 37.1025C417.513 34.6066 418.187 31.6104 418.187 28.24H416.187ZM414.307 36.0881C413.378 37.6803 411.528 39.7566 408.66 42.4099L410.018 43.8781C412.909 41.2034 414.947 38.9597 416.034 37.0959L414.307 36.0881ZM408.739 43.944C412.101 46.4659 416.207 47.744 420.931 47.744V45.744C416.583 45.744 412.912 44.5741 409.939 42.344L408.739 43.944ZM421.156 47.7184L422.092 47.5024L421.642 45.5536L420.706 45.7696L421.156 47.7184ZM411.131 36.16V12.328H409.131V36.16H411.131ZM410.388 11.3618L409.308 11.0738L408.793 13.0062L409.873 13.2942L410.388 11.3618ZM408.323 11.3537C403.353 16.6208 400.851 22.4017 400.851 28.744H402.851C402.851 22.9903 405.1 17.6832 409.778 12.7263L408.323 11.3537ZM400.851 28.744C400.851 34.0751 402.92 38.7935 407.061 42.7841L408.449 41.3439C404.67 37.7025 402.851 33.4929 402.851 28.744H400.851ZM408.445 42.7874C410.248 41.0665 411.131 38.8506 411.131 36.16H409.131C409.131 38.3654 408.429 40.0375 407.064 41.3406L408.445 42.7874ZM449.966 7.792L450.735 8.43218L452.101 6.792H449.966V7.792ZM443.846 15.136V16.136H444.315L444.615 15.7762L443.846 15.136ZM442.91 15.136L441.937 14.907L441.648 16.136H442.91V15.136ZM444.638 7.792V6.792H443.846L443.665 7.56296L444.638 7.792ZM451.838 47.032L452.469 47.8079L453.376 47.0705L452.507 46.2887L451.838 47.032ZM445.286 52.36L444.816 53.2424L445.402 53.555L445.917 53.1359L445.286 52.36ZM440.75 45.088L441.748 45.1576L441.748 45.1505L441.749 45.1435L440.75 45.088ZM440.822 43.792L441.821 43.8475L441.822 43.8198V43.792H440.822ZM440.822 25H441.822V24.6052L441.553 24.3168L440.822 25ZM438.734 22.768L438.098 21.9964L437.277 22.6736L438.004 23.4512L438.734 22.768ZM444.062 18.376L444.702 17.607L444.065 17.0779L443.426 17.6044L444.062 18.376ZM449.606 22.984L450.352 23.65L451.042 22.8772L450.246 22.215L449.606 22.984ZM447.806 25L447.06 24.334L446.806 24.6185V25H447.806ZM447.806 44.944H446.806V45.0579L446.832 45.1689L447.806 44.944ZM449.822 47.248L449.375 48.1424L449.894 48.402L450.377 48.0801L449.822 47.248ZM451.118 46.384L451.787 45.6407L451.21 45.1211L450.564 45.5519L451.118 46.384ZM449.198 7.15181L443.078 14.4958L444.615 15.7762L450.735 8.43218L449.198 7.15181ZM443.846 14.136H442.91V16.136H443.846V14.136ZM443.884 15.365L445.612 8.02104L443.665 7.56296L441.937 14.907L443.884 15.365ZM444.638 8.792H449.966V6.792H444.638V8.792ZM451.207 46.2561L444.655 51.5841L445.917 53.1359L452.469 47.8079L451.207 46.2561ZM445.757 51.4776C444.251 50.6742 443.213 49.739 442.571 48.7087C441.936 47.6881 441.653 46.5149 441.748 45.1576L439.753 45.0184C439.631 46.7571 439.996 48.3559 440.873 49.7653C441.744 51.165 443.082 52.3178 444.816 53.2424L445.757 51.4776ZM441.749 45.1435L441.821 43.8475L439.824 43.7365L439.752 45.0325L441.749 45.1435ZM441.822 43.792V25H439.822V43.792H441.822ZM441.553 24.3168L439.465 22.0848L438.004 23.4512L440.092 25.6832L441.553 24.3168ZM439.37 23.5396L444.698 19.1476L443.426 17.6044L438.098 21.9964L439.37 23.5396ZM443.423 19.145L448.967 23.753L450.246 22.215L444.702 17.607L443.423 19.145ZM448.86 22.318L447.06 24.334L448.552 25.666L450.352 23.65L448.86 22.318ZM446.806 25V44.944H448.806V25H446.806ZM446.832 45.1689C447.129 46.4552 448.016 47.4631 449.375 48.1424L450.27 46.3536C449.324 45.8809 448.916 45.3048 448.781 44.7191L446.832 45.1689ZM450.377 48.0801L451.673 47.2161L450.564 45.5519L449.268 46.4159L450.377 48.0801ZM450.449 47.1273L451.169 47.7753L452.507 46.2887L451.787 45.6407L450.449 47.1273ZM499.637 47.104L500.272 47.8764L501.205 47.1092L500.277 46.3358L499.637 47.104ZM493.157 52.432L492.668 53.3045L493.264 53.6383L493.792 53.2044L493.157 52.432ZM489.485 48.904L488.58 49.3298L488.581 49.3321L489.485 48.904ZM488.621 26.584H489.621V26.1409L489.293 25.8433L488.621 26.584ZM485.525 23.776L486.197 23.0353L485.592 22.4871L484.934 22.9692L485.525 23.776ZM480.413 27.52L479.822 26.7132L479.413 27.0129V27.52H480.413ZM480.413 45.376H479.413V45.7145L479.618 45.9834L480.413 45.376ZM482.285 47.824L482.954 48.5668L483.639 47.9492L483.079 47.2165L482.285 47.824ZM477.173 52.432L476.534 53.201L477.199 53.7544L477.842 53.1748L477.173 52.432ZM471.629 47.824L470.91 47.1286L470.16 47.9036L470.99 48.593L471.629 47.824ZM473.789 45.592L474.507 46.2874L474.789 45.9966V45.592H473.789ZM470.909 23.56L471.464 22.7279L470.876 22.3363L470.31 22.7588L470.909 23.56ZM465.221 27.808L464.622 27.0068L464.221 27.3067V27.808H465.221ZM465.221 45.376H464.221V45.7248L464.438 45.9979L465.221 45.376ZM467.165 47.824L467.824 48.5759L468.54 47.948L467.948 47.2021L467.165 47.824ZM461.909 52.432L461.255 53.1884L461.913 53.758L462.568 53.1839L461.909 52.432ZM456.581 47.824L455.827 47.1672L455.168 47.9239L455.927 48.5804L456.581 47.824ZM458.525 45.592L459.279 46.2488L459.525 45.9664V45.592H458.525ZM456.725 23.776L457.332 22.9816L456.756 22.541L456.158 22.952L456.725 23.776ZM455.573 24.568L454.799 25.2012L455.381 25.9132L456.139 25.392L455.573 24.568ZM454.925 23.776L454.241 23.0465L453.559 23.6858L454.151 24.4092L454.925 23.776ZM460.685 18.376L461.156 17.4942L460.524 17.156L460.001 17.6465L460.685 18.376ZM465.365 26.008H464.365V27.9777L465.955 26.8153L465.365 26.008ZM475.805 18.376L476.477 17.6361L475.874 17.087L475.215 17.5687L475.805 18.376ZM480.413 25.936L479.443 26.1785L479.804 27.6227L481.004 26.7424L480.413 25.936ZM489.773 18.52L490.458 17.7918L489.817 17.1879L489.137 17.7485L489.773 18.52ZM494.669 23.128L493.983 23.8562L494.627 24.4618L495.307 23.8978L494.669 23.128ZM497.621 20.68L498.328 19.9729L497.684 19.3287L496.982 19.9102L497.621 20.68ZM498.413 21.472L499.222 22.0602L499.724 21.3691L499.12 20.7649L498.413 21.472ZM496.829 23.632L496.039 23.0181L496.022 23.04L496.007 23.0628L496.829 23.632ZM495.245 26.008L494.371 25.5224L494.245 25.7489V26.008H495.245ZM495.245 44.944H494.245V45.1636L494.337 45.3631L495.245 44.944ZM497.405 47.248L496.864 48.0892L497.4 48.4338L497.939 48.0935L497.405 47.248ZM498.773 46.384L499.413 45.6158L498.854 45.15L498.239 45.5385L498.773 46.384ZM499.002 46.3316L492.522 51.6596L493.792 53.2044L500.272 47.8764L499.002 46.3316ZM493.645 51.5595C491.951 50.6108 490.917 49.5911 490.389 48.4759L488.581 49.3321C489.349 50.9529 490.762 52.2372 492.668 53.3045L493.645 51.5595ZM490.39 48.4782C489.903 47.4435 489.621 45.9549 489.621 43.792H487.621C487.621 46.0931 487.915 47.9165 488.58 49.3298L490.39 48.4782ZM489.621 43.792V26.584H487.621V43.792H489.621ZM489.293 25.8433L486.197 23.0353L484.853 24.5167L487.949 27.3247L489.293 25.8433ZM484.934 22.9692L479.822 26.7132L481.004 28.3268L486.116 24.5828L484.934 22.9692ZM479.413 27.52V45.376H481.413V27.52H479.413ZM479.618 45.9834L481.49 48.4315L483.079 47.2165L481.207 44.7685L479.618 45.9834ZM481.615 47.0812L476.503 51.6892L477.842 53.1748L482.954 48.5668L481.615 47.0812ZM477.812 51.663L472.268 47.055L470.99 48.593L476.534 53.201L477.812 51.663ZM472.347 48.5194L474.507 46.2874L473.07 44.8966L470.91 47.1286L472.347 48.5194ZM474.789 45.592V27.088H472.789V45.592H474.789ZM474.789 27.088C474.789 26.2435 474.42 25.469 473.853 24.7731C473.288 24.0804 472.478 23.4043 471.464 22.7279L470.354 24.392C471.284 25.0117 471.914 25.5596 472.303 26.0369C472.689 26.511 472.789 26.8525 472.789 27.088H474.789ZM470.31 22.7588L464.622 27.0068L465.819 28.6092L471.507 24.3612L470.31 22.7588ZM464.221 27.808V45.376H466.221V27.808H464.221ZM464.438 45.9979L466.382 48.4459L467.948 47.2021L466.004 44.7541L464.438 45.9979ZM466.506 47.0721L461.25 51.6801L462.568 53.1839L467.824 48.5759L466.506 47.0721ZM462.563 51.6756L457.235 47.0676L455.927 48.5804L461.255 53.1884L462.563 51.6756ZM457.335 48.4808L459.279 46.2488L457.771 44.9352L455.827 47.1672L457.335 48.4808ZM459.525 45.592V27.088H457.525V45.592H459.525ZM459.525 27.088C459.525 25.5091 458.767 24.0788 457.332 22.9816L456.117 24.5704C457.131 25.3452 457.525 26.2189 457.525 27.088H459.525ZM456.158 22.952L455.006 23.744L456.139 25.392L457.291 24.6L456.158 22.952ZM456.347 23.9348L455.699 23.1428L454.151 24.4092L454.799 25.2012L456.347 23.9348ZM455.609 24.5055L461.369 19.1055L460.001 17.6465L454.241 23.0465L455.609 24.5055ZM460.213 19.2578C461.636 20.0188 462.661 20.9503 463.335 22.0421C464.007 23.1315 464.365 24.4381 464.365 26.008H466.365C466.365 24.1219 465.931 22.4405 465.037 20.9919C464.144 19.5457 462.83 18.3892 461.156 17.4942L460.213 19.2578ZM465.955 26.8153L476.395 19.1833L475.215 17.5687L464.775 25.2007L465.955 26.8153ZM475.132 19.1159C477.369 21.1495 478.773 23.499 479.443 26.1785L481.383 25.6935C480.613 22.613 478.993 19.9225 476.477 17.6361L475.132 19.1159ZM481.004 26.7424C483.187 25.1414 486.301 22.6791 490.409 19.2915L489.137 17.7485C485.037 21.1289 481.958 23.5626 479.821 25.1296L481.004 26.7424ZM489.087 19.2482L493.983 23.8562L495.354 22.3998L490.458 17.7918L489.087 19.2482ZM495.307 23.8978L498.259 21.4498L496.982 19.9102L494.03 22.3582L495.307 23.8978ZM496.914 21.3871L497.706 22.1791L499.12 20.7649L498.328 19.9729L496.914 21.3871ZM497.604 20.8838C497.013 21.6965 496.53 22.387 496.039 23.0181L497.618 24.2459C498.135 23.581 498.661 22.8315 499.222 22.0602L497.604 20.8838ZM496.007 23.0628C495.386 23.9598 494.762 24.8175 494.371 25.5224L496.119 26.4936C496.447 25.9025 496.976 25.1762 497.651 24.2012L496.007 23.0628ZM494.245 26.008V44.944H496.245V26.008H494.245ZM494.337 45.3631C494.873 46.5243 495.753 47.3747 496.864 48.0892L497.946 46.4068C497.041 45.8253 496.481 45.2357 496.153 44.5249L494.337 45.3631ZM497.939 48.0935L499.307 47.2295L498.239 45.5385L496.871 46.4025L497.939 48.0935ZM498.133 47.1522L498.997 47.8722L500.277 46.3358L499.413 45.6158L498.133 47.1522ZM523.75 27.664L524.322 28.4838L525.3 27.8005L524.457 26.9569L523.75 27.664ZM511.294 37.096L510.641 36.338L510.294 36.6372V37.096H511.294ZM511.294 44.584H510.294V45.2362L510.89 45.4992L511.294 44.584ZM517.342 47.248L516.938 48.1632L517.427 48.3786L517.878 48.0917L517.342 47.248ZM522.094 44.224L522.831 43.5483L522.264 42.9302L521.557 43.3803L522.094 44.224ZM522.886 45.088L523.429 45.9276L524.422 45.2847L523.623 44.4123L522.886 45.088ZM518.926 47.752L518.352 46.9328L518.351 46.9332L518.926 47.752ZM512.662 52.144L512.183 53.0219L512.727 53.3191L513.236 52.9628L512.662 52.144ZM502.726 48.544L502.001 47.8553L500.734 49.1881L502.541 49.5269L502.726 48.544ZM504.742 24.064L504.326 23.1543L503.742 23.4212V24.064H504.742ZM514.462 18.376L515.169 17.6689L514.574 17.0738L513.886 17.5585L514.462 18.376ZM518.062 30.04L518.681 30.8249L519.555 30.1353L518.776 29.3403L518.062 30.04ZM511.222 23.056L511.936 22.3563L510.222 20.6058V23.056H511.222ZM511.222 35.44H510.222V37.5035L511.841 36.2249L511.222 35.44ZM523.177 26.8442C517.909 30.5247 513.774 33.6425 510.641 36.338L511.946 37.854C515.005 35.2215 519.078 32.1473 524.322 28.4838L523.177 26.8442ZM510.294 37.096V44.584H512.294V37.096H510.294ZM510.89 45.4992L516.938 48.1632L517.745 46.3328L511.697 43.6688L510.89 45.4992ZM517.878 48.0917L522.63 45.0677L521.557 43.3803L516.805 46.4043L517.878 48.0917ZM521.356 44.8997L522.148 45.7637L523.623 44.4123L522.831 43.5483L521.356 44.8997ZM522.342 44.2484C521.11 45.046 519.803 45.9168 518.352 46.9328L519.499 48.5712C520.928 47.5712 522.213 46.714 523.429 45.9276L522.342 44.2484ZM518.351 46.9332L512.087 51.3252L513.236 52.9628L519.5 48.5708L518.351 46.9332ZM513.14 51.2661C509.889 49.4924 506.478 48.2301 502.91 47.5611L502.541 49.5269C505.885 50.1539 509.098 51.3396 512.183 53.0219L513.14 51.2661ZM503.45 49.2327C505.01 47.5911 505.742 45.6097 505.742 43.288H503.742C503.742 45.1423 503.177 46.6169 502.001 47.8553L503.45 49.2327ZM505.742 43.288V24.064H503.742V43.288H505.742ZM505.157 24.9737C508.538 23.4301 511.832 21.452 515.037 19.1935L513.886 17.5585C510.755 19.764 507.569 21.6739 504.326 23.1543L505.157 24.9737ZM513.754 19.0831L523.042 28.3711L524.457 26.9569L515.169 17.6689L513.754 19.0831ZM518.776 29.3403L511.936 22.3563L510.507 23.7557L517.347 30.7397L518.776 29.3403ZM510.222 23.056V35.44H512.222V23.056H510.222ZM511.841 36.2249L518.681 30.8249L517.442 29.2551L510.602 34.6551L511.841 36.2249ZM550.258 20.968L551.062 21.5628L551.065 21.558L550.258 20.968ZM543.706 29.824L542.902 29.2292L542.255 30.1038L543.181 30.675L543.706 29.824ZM550.474 34H551.474V33.442L550.999 33.149L550.474 34ZM550.474 47.248L550.777 48.2009L551.474 47.9792V47.248H550.474ZM545.794 49.408L545.267 48.5577L545.257 48.5643L545.794 49.408ZM541.546 52.144L541.099 53.0384L541.623 53.3004L542.107 52.9715L541.546 52.144ZM527.002 51.928L526.433 52.7502L526.887 53.065L527.396 52.8471L527.002 51.928ZM526.066 51.28L525.247 50.7065L524.67 51.53L525.497 52.1022L526.066 51.28ZM534.634 39.04L535.453 39.6135L536.091 38.7022L535.117 38.1646L534.634 39.04ZM527.722 35.224H526.722V35.8142L527.239 36.0994L527.722 35.224ZM527.722 24.136L527.316 23.2222L526.722 23.4861V24.136H527.722ZM536.578 18.16L537.019 17.2623L536.395 16.9563L535.891 17.4335L536.578 18.16ZM545.794 21.112V22.112H545.851L545.909 22.1054L545.794 21.112ZM547.666 20.896V19.896H547.608L547.551 19.9026L547.666 20.896ZM548.818 15.64L547.944 16.1256L547.983 16.1962L548.033 16.2596L548.818 15.64ZM548.458 14.992H547.458V15.2511L547.584 15.4776L548.458 14.992ZM545.362 25.072L546.159 25.676L547.723 23.6118L545.178 24.0891L545.362 25.072ZM534.13 23.776L534.506 22.8493L533.143 22.2967L533.13 23.7673L534.13 23.776ZM534.058 32.056L533.058 32.0473L533.053 32.6622L533.599 32.9444L534.058 32.056ZM538.378 34.288L537.919 35.1764L538.667 35.5627L539.175 34.892L538.378 34.288ZM544.498 37.096L545.498 37.1035L545.503 36.4847L544.951 36.2044L544.498 37.096ZM539.962 34.792L540.415 33.9004L539.676 33.5251L539.17 34.1815L539.962 34.792ZM531.97 45.16L531.178 44.5495L529.493 46.7347L532.187 46.1362L531.97 45.16ZM544.426 46.672L543.988 47.5712L545.414 48.2647L545.426 46.6795L544.426 46.672ZM551.346 16.504C551.346 16.8374 551.23 17.3326 550.91 18.0137C550.595 18.6841 550.111 19.4737 549.45 20.378L551.065 21.558C551.772 20.5903 552.333 19.6879 552.72 18.8643C553.102 18.0514 553.346 17.2506 553.346 16.504H551.346ZM549.454 20.3732L542.902 29.2292L544.51 30.4188L551.062 21.5628L549.454 20.3732ZM543.181 30.675L549.949 34.851L550.999 33.149L544.231 28.973L543.181 30.675ZM549.474 34V47.248H551.474V34H549.474ZM550.171 46.2951C548.509 46.8239 546.85 47.5783 545.268 48.5577L546.32 50.2583C547.762 49.3657 549.271 48.6801 550.777 48.2009L550.171 46.2951ZM545.257 48.5643C544.487 49.0541 543.016 49.9376 540.984 51.3165L542.107 52.9715C544.107 51.6144 545.516 50.7699 546.331 50.2517L545.257 48.5643ZM541.993 51.2496C539.434 49.9702 536.834 49.272 534.274 49.272V51.272C536.466 51.272 538.762 51.8698 541.099 53.0384L541.993 51.2496ZM534.274 49.272C531.731 49.272 529.219 49.8897 526.608 51.0089L527.396 52.8471C529.824 51.8063 532.065 51.272 534.274 51.272V49.272ZM527.571 51.1058L526.635 50.4578L525.497 52.1022L526.433 52.7502L527.571 51.1058ZM526.885 51.8535L535.453 39.6135L533.815 38.4665L525.247 50.7065L526.885 51.8535ZM535.117 38.1646L528.205 34.3486L527.239 36.0994L534.151 39.9154L535.117 38.1646ZM528.722 35.224V24.136H526.722V35.224H528.722ZM528.128 25.0498C531.48 23.5599 534.526 21.4777 537.265 18.8865L535.891 17.4335C533.302 19.8823 530.444 21.8321 527.316 23.2222L528.128 25.0498ZM536.137 19.0577C540.111 21.0086 543.314 22.112 545.794 22.112V20.112C543.809 20.112 540.964 19.1994 537.019 17.2623L536.137 19.0577ZM545.909 22.1054L547.78 21.8894L547.551 19.9026L545.679 20.1186L545.909 22.1054ZM547.666 21.896C548.622 21.896 549.538 21.4992 550.214 20.8942C550.891 20.288 551.402 19.4025 551.402 18.376H549.402C549.402 18.7174 549.229 19.092 548.88 19.4038C548.53 19.7168 548.078 19.896 547.666 19.896V21.896ZM551.402 18.376C551.402 17.8429 551.155 17.3047 550.88 16.8303C550.584 16.3199 550.154 15.7189 549.603 15.0204L548.033 16.2596C548.561 16.9291 548.924 17.444 549.15 17.8337C549.397 18.2593 549.402 18.4051 549.402 18.376H551.402ZM549.692 15.1544L549.332 14.5064L547.584 15.4776L547.944 16.1256L549.692 15.1544ZM549.458 14.992C549.458 14.915 549.472 14.9024 549.462 14.9223C549.449 14.9477 549.432 14.9594 549.439 14.955C549.453 14.9455 549.509 14.9142 549.639 14.8866C549.768 14.859 549.946 14.84 550.186 14.84V12.84C549.541 12.84 548.873 12.9341 548.341 13.283C547.729 13.6845 547.458 14.313 547.458 14.992H549.458ZM550.186 14.84C550.698 14.84 550.913 14.9842 551.031 15.1294C551.183 15.3147 551.346 15.71 551.346 16.504H553.346C553.346 15.498 553.149 14.5613 552.581 13.8646C551.979 13.1278 551.114 12.84 550.186 12.84V14.84ZM545.178 24.0891C544.116 24.2882 542.82 24.36 541.33 24.36V26.36C542.864 26.36 544.304 26.2878 545.546 26.0549L545.178 24.0891ZM541.33 24.36C539.327 24.36 537.08 23.8928 534.506 22.8493L533.754 24.7027C536.508 25.8192 539.013 26.36 541.33 26.36V24.36ZM533.13 23.7673L533.058 32.0473L535.058 32.0647L535.13 23.7847L533.13 23.7673ZM533.599 32.9444L537.919 35.1764L538.837 33.3996L534.517 31.1676L533.599 32.9444ZM539.175 34.892L546.159 25.676L544.565 24.468L537.581 33.684L539.175 34.892ZM544.951 36.2044L540.415 33.9004L539.509 35.6836L544.045 37.9876L544.951 36.2044ZM539.17 34.1815L531.178 44.5495L532.762 45.7705L540.754 35.4025L539.17 34.1815ZM532.187 46.1362C533.39 45.8687 534.897 45.728 536.65 45.728V43.728C534.802 43.728 533.141 43.8753 531.753 44.1838L532.187 46.1362ZM536.65 45.728C538.994 45.728 541.437 46.33 543.988 47.5712L544.863 45.7728C542.087 44.422 539.346 43.728 536.65 43.728V45.728ZM545.426 46.6795L545.498 37.1035L543.498 37.0885L543.426 46.6645L545.426 46.6795Z" fill="white" mask="url(#path-1-outside-1_160_5)"/>
</svg>
